<svg width="55" height="50" viewBox="0 0 55 50" fill="none" xmlns="http://www.w3.org/2000/svg">
<mask id="mask0_2078_2034" style="mask-type:luminance" maskUnits="userSpaceOnUse" x="10" y="16" width="31" height="32">
<path d="M40.0361 16.0092V47.6147H10.0642V16.0092H40.0361Z" fill="white"/>
</mask>
<g mask="url(#mask0_2078_2034)">
<mask id="mask1_2078_2034" style="mask-type:luminance" maskUnits="userSpaceOnUse" x="10" y="16" width="31" height="32">
<path d="M32.6645 44.9083C33.1942 44.4496 33.6798 43.9908 34.1653 43.4862C34.5185 43.1193 34.8275 42.7523 35.1365 42.3395C35.4896 41.9725 35.7986 41.5596 36.0634 41.1468C37.3435 39.4037 38.3588 37.4312 39.0209 35.2752C39.683 33.2569 40.0361 31.0551 40.0361 28.7615C40.0361 26.0551 40.0361 23.3945 39.9479 20.734V20.5505C39.7271 19.2661 39.1092 18.1193 38.2263 17.2936C37.3435 16.4679 36.24 16.0092 34.9599 16.0092C33.7239 16.0092 32.5763 16.4679 31.6934 17.2936C30.8548 18.1193 30.2368 19.2661 30.0161 20.5505V20.7798L29.9278 28.7615C29.9278 30.1835 29.6629 31.5138 29.1774 32.7064C28.6918 33.9908 27.9414 35.0918 27.0145 36.0551C26.0875 37.0184 25.0281 37.7982 23.7922 38.3028C22.6445 38.8073 21.3644 39.0826 19.996 39.0826C17.2592 39.0826 14.7873 37.9358 12.9775 36.0551C11.4767 34.4954 10.4615 32.4312 10.1525 30.0918V30.1376C10.9471 39.9541 17.3034 47.6147 25.0281 47.6147C27.809 47.6147 30.4133 46.6055 32.6645 44.9083Z" fill="white"/>
</mask>
<g mask="url(#mask1_2078_2034)">
<mask id="mask2_2078_2034" style="mask-type:luminance" maskUnits="userSpaceOnUse" x="10" y="16" width="31" height="32">
<path d="M32.6645 44.9083C33.1942 44.4496 33.6798 43.9908 34.1653 43.4862C34.5185 43.1193 34.8275 42.7523 35.1365 42.3395C35.4896 41.9725 35.7986 41.5596 36.0634 41.1468C37.3435 39.4037 38.3588 37.4312 39.0209 35.2752C39.683 33.2569 40.0361 31.0551 40.0361 28.7615C40.0361 26.0551 40.0361 23.3945 39.9479 20.734V20.5505C39.7271 19.2661 39.1092 18.1193 38.2263 17.2936C37.3435 16.4679 36.24 16.0092 34.9599 16.0092C33.7239 16.0092 32.5763 16.4679 31.6934 17.2936C30.8548 18.1193 30.2368 19.2661 30.0161 20.5505V20.7798L29.9278 28.7615C29.9278 30.1835 29.6629 31.5138 29.1774 32.7064C28.6918 33.9908 27.9414 35.0918 27.0145 36.0551C26.0875 37.0184 25.0281 37.7982 23.7922 38.3028C22.6445 38.8073 21.3644 39.0826 19.996 39.0826C17.2592 39.0826 14.7873 37.9358 12.9775 36.0551C11.4767 34.4954 10.4615 32.4312 10.1525 30.0918V30.1376C10.9471 39.9541 17.3034 47.6147 25.0281 47.6147C27.809 47.6147 30.4133 46.6055 32.6645 44.9083Z" fill="white"/>
</mask>
<g mask="url(#mask2_2078_2034)">
<path d="M28.7726 0.923828L54.7661 35.7373L21.3276 62.6999L-4.66595 27.8864L28.7726 0.923828Z" fill="url(#paint0_linear_2078_2034)"/>
</g>
</g>
</g>
<mask id="mask3_2078_2034" style="mask-type:luminance" maskUnits="userSpaceOnUse" x="0" y="0" width="33" height="50">
<path d="M32.6646 0V49.5872H1.90735e-05V0H32.6646Z" fill="white"/>
</mask>
<g mask="url(#mask3_2078_2034)">
<mask id="mask4_2078_2034" style="mask-type:luminance" maskUnits="userSpaceOnUse" x="0" y="0" width="33" height="50">
<path d="M10.0642 5.22936V28.7615C10.0642 29.2202 10.1084 29.6789 10.1525 30.1376C10.9471 39.9541 17.3034 47.6147 25.0281 47.6147C27.809 47.6147 30.4133 46.6055 32.6646 44.9083C31.1637 46.1468 29.4864 47.2018 27.6324 47.9817C25.293 48.9908 22.6886 49.5872 19.996 49.5872C14.4784 49.5872 9.49039 47.2477 5.87081 43.4862C2.20708 39.7248 1.90735e-05 34.4954 1.90735e-05 28.7615V5.22936C1.90735e-05 3.80734 0.529713 2.47706 1.45668 1.51376C2.38365 0.59633 3.6196 0 5.03212 0C6.4005 0 7.6806 0.59633 8.56342 1.51376L8.60756 1.55963C9.49039 2.47706 10.0642 3.80734 10.0642 5.22936Z" fill="white"/>
</mask>
<g mask="url(#mask4_2078_2034)">
<mask id="mask5_2078_2034" style="mask-type:luminance" maskUnits="userSpaceOnUse" x="0" y="0" width="33" height="50">
<path d="M10.0642 5.22936V28.7615C10.0642 29.2202 10.1084 29.6789 10.1525 30.1376C10.9471 39.9541 17.3034 47.6147 25.0281 47.6147C27.809 47.6147 30.4133 46.6055 32.6646 44.9083C31.1637 46.1468 29.4864 47.2018 27.6324 47.9817C25.293 48.9908 22.6886 49.5872 19.996 49.5872C14.4784 49.5872 9.49039 47.2477 5.87081 43.4862C2.20708 39.7248 1.90735e-05 34.4954 1.90735e-05 28.7615V5.22936C1.90735e-05 3.80734 0.529713 2.47706 1.45668 1.51376C2.38365 0.59633 3.6196 0 5.03212 0C6.4005 0 7.6806 0.59633 8.56342 1.51376L8.60756 1.55963C9.49039 2.47706 10.0642 3.80734 10.0642 5.22936Z" fill="white"/>
</mask>
<g mask="url(#mask5_2078_2034)">
<path d="M32.473 52.1801L-3.64492 49.2961L0.191925 -2.59302L36.3098 0.290978L32.473 52.1801Z" fill="url(#paint1_linear_2078_2034)"/>
</g>
</g>
</g>
<mask id="mask6_2078_2034" style="mask-type:luminance" maskUnits="userSpaceOnUse" x="14" y="2" width="31" height="32">
<path d="M44.8918 2.38531V33.9908H14.9199V2.38531H44.8918Z" fill="white"/>
</mask>
<g mask="url(#mask6_2078_2034)">
<mask id="mask7_2078_2034" style="mask-type:luminance" maskUnits="userSpaceOnUse" x="14" y="2" width="31" height="32">
<path d="M22.3357 5.09174C21.806 5.55045 21.3204 6.00917 20.8349 6.51375C20.4817 6.88073 20.1286 7.2477 19.8196 7.66054C19.5106 8.02752 19.2016 8.44036 18.8926 8.8532C17.6567 10.5963 16.6414 12.5688 15.9793 14.7248C15.3172 16.7431 14.9641 18.9449 14.9641 21.2385C14.9641 23.9449 14.9199 26.6055 15.0082 29.266L15.0524 29.4954C15.2289 30.7339 15.8469 31.8807 16.7297 32.7064C17.6126 33.5321 18.7602 33.9908 19.9962 33.9908C21.2321 33.9908 22.3798 33.5321 23.2626 32.7064C24.1455 31.8807 24.7634 30.7339 24.9841 29.4954V29.266L25.0283 21.2385C25.0283 19.8165 25.2931 18.4862 25.7787 17.2936C26.3084 16.0092 27.0146 14.9082 27.9416 13.9449C28.8686 12.9816 29.9721 12.2018 31.1639 11.6972C32.3557 11.1927 33.6358 10.9174 34.9601 10.9174C37.741 10.9174 40.2129 12.0642 42.0227 13.9449C43.5235 15.5046 44.5387 17.5688 44.8477 19.9082V19.8624C44.009 10.0459 37.6527 2.38531 29.928 2.38531C27.1471 2.38531 24.5427 3.39449 22.3357 5.09174Z" fill="white"/>
</mask>
<g mask="url(#mask7_2078_2034)">
<mask id="mask8_2078_2034" style="mask-type:luminance" maskUnits="userSpaceOnUse" x="14" y="2" width="31" height="32">
<path d="M22.3357 5.09174C21.806 5.55045 21.3204 6.00917 20.8349 6.51375C20.4817 6.88073 20.1286 7.2477 19.8196 7.66054C19.5106 8.02752 19.2016 8.44036 18.8926 8.8532C17.6567 10.5963 16.6414 12.5688 15.9793 14.7248C15.3172 16.7431 14.9641 18.9449 14.9641 21.2385C14.9641 23.9449 14.9199 26.6055 15.0082 29.266L15.0524 29.4954C15.2289 30.7339 15.8469 31.8807 16.7297 32.7064C17.6126 33.5321 18.7602 33.9908 19.9962 33.9908C21.2321 33.9908 22.3798 33.5321 23.2626 32.7064C24.1455 31.8807 24.7634 30.7339 24.9841 29.4954V29.266L25.0283 21.2385C25.0283 19.8165 25.2931 18.4862 25.7787 17.2936C26.3084 16.0092 27.0146 14.9082 27.9416 13.9449C28.8686 12.9816 29.9721 12.2018 31.1639 11.6972C32.3557 11.1927 33.6358 10.9174 34.9601 10.9174C37.741 10.9174 40.2129 12.0642 42.0227 13.9449C43.5235 15.5046 44.5387 17.5688 44.8477 19.9082V19.8624C44.009 10.0459 37.6527 2.38531 29.928 2.38531C27.1471 2.38531 24.5427 3.39449 22.3357 5.09174Z" fill="white"/>
</mask>
<g mask="url(#mask8_2078_2034)">
<path d="M27.6891 -13.0168L59.9312 15.8506L32.1225 49.3929L-0.119572 20.5255L27.6891 -13.0168Z" fill="url(#paint2_linear_2078_2034)"/>
</g>
</g>
</g>
<mask id="mask9_2078_2034" style="mask-type:luminance" maskUnits="userSpaceOnUse" x="22" y="0" width="33" height="50">
<path d="M55 0.412872V50H22.3355V0.412872H55Z" fill="white"/>
</mask>
<g mask="url(#mask9_2078_2034)">
<mask id="mask10_2078_2034" style="mask-type:luminance" maskUnits="userSpaceOnUse" x="22" y="0" width="33" height="50">
<path d="M44.8917 44.7707V21.2386C44.8917 20.7798 44.8917 20.3211 44.8475 19.8624C44.0088 10.0459 37.6525 2.38535 29.9278 2.38535C27.1469 2.38535 24.5425 3.39452 22.3355 5.09177C23.8363 3.85324 25.5136 2.79819 27.3234 2.01838C29.7071 1.0092 32.2673 0.412872 34.9599 0.412872C40.5217 0.412872 45.5096 2.75232 49.1292 6.51379C52.7488 10.2753 55 15.5046 55 21.2386V44.7707C55 46.1927 54.4262 47.523 53.4992 48.4863C52.6164 49.4037 51.3363 50 49.9679 50C48.5554 50 47.3194 49.4037 46.3925 48.4863V48.4404C45.4655 47.523 44.8917 46.1927 44.8917 44.7707Z" fill="white"/>
</mask>
<g mask="url(#mask10_2078_2034)">
<mask id="mask11_2078_2034" style="mask-type:luminance" maskUnits="userSpaceOnUse" x="22" y="0" width="33" height="50">
<path d="M44.8917 44.7707V21.2386C44.8917 20.7798 44.8917 20.3211 44.8475 19.8624C44.0088 10.0459 37.6525 2.38535 29.9278 2.38535C27.1469 2.38535 24.5425 3.39452 22.3355 5.09177C23.8363 3.85324 25.5136 2.79819 27.3234 2.01838C29.7071 1.0092 32.2673 0.412872 34.9599 0.412872C40.5217 0.412872 45.5096 2.75232 49.1292 6.51379C52.7488 10.2753 55 15.5046 55 21.2386V44.7707C55 46.1927 54.4262 47.523 53.4992 48.4863C52.6164 49.4037 51.3363 50 49.9679 50C48.5554 50 47.3194 49.4037 46.3925 48.4863V48.4404C45.4655 47.523 44.8917 46.1927 44.8917 44.7707Z" fill="white"/>
</mask>
<g mask="url(#mask11_2078_2034)">
<path d="M65.0635 47.6865L23.8593 57.159L12.2719 2.72632L53.4761 -6.74615L65.0635 47.6865Z" fill="url(#paint3_linear_2078_2034)"/>
</g>
</g>
</g>
<defs>
<linearGradient id="paint0_linear_2078_2034" x1="42.7573" y1="19.6538" x2="8.36206" y2="45.335" gradientUnits="userSpaceOnUse">
<stop stop-color="white"/>
<stop offset="0.125" stop-color="white"/>
<stop offset="0.140625" stop-color="white"/>
<stop offset="0.148438" stop-color="white"/>
<stop offset="0.15625" stop-color="#FEFEFE"/>
<stop offset="0.164062" stop-color="#FEFEFE"/>
<stop offset="0.171875" stop-color="#FDFDFD"/>
<stop offset="0.179688" stop-color="#FCFCFC"/>
<stop offset="0.1875" stop-color="#FCFCFC"/>
<stop offset="0.195312" stop-color="#FBFBFB"/>
<stop offset="0.203125" stop-color="#FAFAFA"/>
<stop offset="0.210937" stop-color="#FAFAFA"/>
<stop offset="0.21875" stop-color="#F9F9F9"/>
<stop offset="0.226562" stop-color="#F8F8F8"/>
<stop offset="0.234375" stop-color="#F8F8F8"/>
<stop offset="0.242188" stop-color="#F7F7F7"/>
<stop offset="0.25" stop-color="#F6F6F6"/>
<stop offset="0.257812" stop-color="#F6F6F6"/>
<stop offset="0.265625" stop-color="#F5F5F5"/>
<stop offset="0.273438" stop-color="#F4F4F4"/>
<stop offset="0.28125" stop-color="#F4F4F4"/>
<stop offset="0.289062" stop-color="#F3F3F3"/>
<stop offset="0.296875" stop-color="#F2F2F2"/>
<stop offset="0.304688" stop-color="#F2F2F2"/>
<stop offset="0.3125" stop-color="#F1F1F1"/>
<stop offset="0.320312" stop-color="#F0F0F0"/>
<stop offset="0.328125" stop-color="#F0F0F0"/>
<stop offset="0.335938" stop-color="#EFEFEF"/>
<stop offset="0.34375" stop-color="#EEEEEE"/>
<stop offset="0.351562" stop-color="#EEEEEE"/>
<stop offset="0.359375" stop-color="#EDEDED"/>
<stop offset="0.367188" stop-color="#ECECEC"/>
<stop offset="0.375" stop-color="#ECECEC"/>
<stop offset="0.382812" stop-color="#EBEBEB"/>
<stop offset="0.390625" stop-color="#EAEAEA"/>
<stop offset="0.398438" stop-color="#EAEAEA"/>
<stop offset="0.40625" stop-color="#E9E9E9"/>
<stop offset="0.414062" stop-color="#E8E8E8"/>
<stop offset="0.421875" stop-color="#E8E8E8"/>
<stop offset="0.429688" stop-color="#E7E7E7"/>
<stop offset="0.4375" stop-color="#E6E6E6"/>
<stop offset="0.445312" stop-color="#E6E6E6"/>
<stop offset="0.453125" stop-color="#E5E5E5"/>
<stop offset="0.460938" stop-color="#E4E4E4"/>
<stop offset="0.46875" stop-color="#E3E3E3"/>
<stop offset="0.476562" stop-color="#E3E3E3"/>
<stop offset="0.484375" stop-color="#E2E2E2"/>
<stop offset="0.492188" stop-color="#E1E1E1"/>
<stop offset="0.5" stop-color="#E1E1E1"/>
<stop offset="0.507812" stop-color="#E0E0E0"/>
<stop offset="0.515625" stop-color="#DFDFDF"/>
<stop offset="0.523438" stop-color="#DFDFDF"/>
<stop offset="0.53125" stop-color="#DEDEDE"/>
<stop offset="0.539062" stop-color="#DDDDDD"/>
<stop offset="0.546875" stop-color="#DDDDDD"/>
<stop offset="0.554688" stop-color="#DCDCDC"/>
<stop offset="0.5625" stop-color="#DBDBDB"/>
<stop offset="0.570312" stop-color="#DBDBDB"/>
<stop offset="0.578125" stop-color="#DADADA"/>
<stop offset="0.585938" stop-color="#D9D9D9"/>
<stop offset="0.59375" stop-color="#D9D9D9"/>
<stop offset="0.601563" stop-color="#D8D8D8"/>
<stop offset="0.609375" stop-color="#D7D7D7"/>
<stop offset="0.617188" stop-color="#D7D7D7"/>
<stop offset="0.625" stop-color="#D6D6D6"/>
<stop offset="0.632812" stop-color="#D5D5D5"/>
<stop offset="0.640625" stop-color="#D5D5D5"/>
<stop offset="0.648437" stop-color="#D4D4D4"/>
<stop offset="0.65625" stop-color="#D3D3D3"/>
<stop offset="0.664062" stop-color="#D3D3D3"/>
<stop offset="0.671875" stop-color="#D2D2D2"/>
<stop offset="0.679688" stop-color="#D1D1D1"/>
<stop offset="0.6875" stop-color="#D1D1D1"/>
<stop offset="0.695312" stop-color="#D0D0D0"/>
<stop offset="0.703125" stop-color="#CFCFCF"/>
<stop offset="0.710938" stop-color="#CFCFCF"/>
<stop offset="0.71875" stop-color="#CECECE"/>
<stop offset="0.726562" stop-color="#CDCDCD"/>
<stop offset="0.734375" stop-color="#CDCDCD"/>
<stop offset="0.742188" stop-color="#CCCCCC"/>
<stop offset="0.75" stop-color="#CBCBCB"/>
<stop offset="0.757812" stop-color="#CBCBCB"/>
<stop offset="0.765625" stop-color="#CACACA"/>
<stop offset="0.773438" stop-color="#C9C9C9"/>
<stop offset="0.78125" stop-color="#C9C9C9"/>
<stop offset="0.789062" stop-color="#C8C8C8"/>
<stop offset="0.796875" stop-color="#C7C7C7"/>
<stop offset="0.804688" stop-color="#C7C7C7"/>
<stop offset="0.8125" stop-color="#C6C6C6"/>
<stop offset="0.820312" stop-color="#C5C5C5"/>
<stop offset="0.828125" stop-color="#C5C5C5"/>
<stop offset="0.835937" stop-color="#C4C4C4"/>
<stop offset="0.84375" stop-color="#C3C3C3"/>
<stop offset="0.851562" stop-color="#C3C3C3"/>
<stop offset="0.859375" stop-color="#C2C2C2"/>
<stop offset="0.875" stop-color="#C2C2C2"/>
<stop offset="1" stop-color="#C2C2C2"/>
</linearGradient>
<linearGradient id="paint1_linear_2078_2034" x1="14.4265" y1="50.7391" x2="18.568" y2="-1.12566" gradientUnits="userSpaceOnUse">
<stop stop-color="white"/>
<stop offset="0.03125" stop-color="white"/>
<stop offset="0.0390625" stop-color="#FEFEFE"/>
<stop offset="0.046875" stop-color="#FEFEFE"/>
<stop offset="0.0546875" stop-color="#FDFDFD"/>
<stop offset="0.0625" stop-color="#FDFDFD"/>
<stop offset="0.0703125" stop-color="#FCFCFC"/>
<stop offset="0.078125" stop-color="#FCFCFC"/>
<stop offset="0.0859375" stop-color="#FBFBFB"/>
<stop offset="0.09375" stop-color="#FBFBFB"/>
<stop offset="0.101562" stop-color="#FAFAFA"/>
<stop offset="0.109375" stop-color="#FAFAFA"/>
<stop offset="0.117188" stop-color="#F9F9F9"/>
<stop offset="0.125" stop-color="#F9F9F9"/>
<stop offset="0.132812" stop-color="#F8F8F8"/>
<stop offset="0.140625" stop-color="#F8F8F8"/>
<stop offset="0.148438" stop-color="#F7F7F7"/>
<stop offset="0.15625" stop-color="#F7F7F7"/>
<stop offset="0.164062" stop-color="#F6F6F6"/>
<stop offset="0.171875" stop-color="#F6F6F6"/>
<stop offset="0.179688" stop-color="#F5F5F5"/>
<stop offset="0.1875" stop-color="#F5F5F5"/>
<stop offset="0.195312" stop-color="#F4F4F4"/>
<stop offset="0.203125" stop-color="#F4F4F4"/>
<stop offset="0.210938" stop-color="#F3F3F3"/>
<stop offset="0.21875" stop-color="#F3F3F3"/>
<stop offset="0.226562" stop-color="#F2F2F2"/>
<stop offset="0.234375" stop-color="#F2F2F2"/>
<stop offset="0.242187" stop-color="#F1F1F1"/>
<stop offset="0.25" stop-color="#F1F1F1"/>
<stop offset="0.257812" stop-color="#F0F0F0"/>
<stop offset="0.265625" stop-color="#F0F0F0"/>
<stop offset="0.273437" stop-color="#EFEFEF"/>
<stop offset="0.28125" stop-color="#EFEFEF"/>
<stop offset="0.289062" stop-color="#EEEEEE"/>
<stop offset="0.296875" stop-color="#EEEEEE"/>
<stop offset="0.304688" stop-color="#EDEDED"/>
<stop offset="0.3125" stop-color="#EDEDED"/>
<stop offset="0.320312" stop-color="#ECECEC"/>
<stop offset="0.328125" stop-color="#ECECEC"/>
<stop offset="0.335938" stop-color="#EBEBEB"/>
<stop offset="0.34375" stop-color="#EBEBEB"/>
<stop offset="0.351563" stop-color="#EAEAEA"/>
<stop offset="0.359375" stop-color="#EAEAEA"/>
<stop offset="0.367188" stop-color="#E9E9E9"/>
<stop offset="0.375" stop-color="#E9E9E9"/>
<stop offset="0.382812" stop-color="#E8E8E8"/>
<stop offset="0.390625" stop-color="#E8E8E8"/>
<stop offset="0.398437" stop-color="#E7E7E7"/>
<stop offset="0.40625" stop-color="#E7E7E7"/>
<stop offset="0.414062" stop-color="#E6E6E6"/>
<stop offset="0.421875" stop-color="#E6E6E6"/>
<stop offset="0.429688" stop-color="#E5E5E5"/>
<stop offset="0.4375" stop-color="#E5E5E5"/>
<stop offset="0.445312" stop-color="#E4E4E4"/>
<stop offset="0.453125" stop-color="#E4E4E4"/>
<stop offset="0.460938" stop-color="#E3E3E3"/>
<stop offset="0.46875" stop-color="#E3E3E3"/>
<stop offset="0.476563" stop-color="#E2E2E2"/>
<stop offset="0.484375" stop-color="#E2E2E2"/>
<stop offset="0.492188" stop-color="#E1E1E1"/>
<stop offset="0.5" stop-color="#E1E1E1"/>
<stop offset="0.507812" stop-color="#E0E0E0"/>
<stop offset="0.515625" stop-color="#E0E0E0"/>
<stop offset="0.523438" stop-color="#DFDFDF"/>
<stop offset="0.53125" stop-color="#DFDFDF"/>
<stop offset="0.539062" stop-color="#DEDEDE"/>
<stop offset="0.546875" stop-color="#DEDEDE"/>
<stop offset="0.554687" stop-color="#DDDDDD"/>
<stop offset="0.5625" stop-color="#DDDDDD"/>
<stop offset="0.570312" stop-color="#DCDCDC"/>
<stop offset="0.578125" stop-color="#DCDCDC"/>
<stop offset="0.585938" stop-color="#DBDBDB"/>
<stop offset="0.59375" stop-color="#DBDBDB"/>
<stop offset="0.601562" stop-color="#DADADA"/>
<stop offset="0.609375" stop-color="#DADADA"/>
<stop offset="0.617188" stop-color="#D9D9D9"/>
<stop offset="0.625" stop-color="#D9D9D9"/>
<stop offset="0.632812" stop-color="#D8D8D8"/>
<stop offset="0.640625" stop-color="#D8D8D8"/>
<stop offset="0.648438" stop-color="#D7D7D7"/>
<stop offset="0.65625" stop-color="#D7D7D7"/>
<stop offset="0.664062" stop-color="#D6D6D6"/>
<stop offset="0.671875" stop-color="#D6D6D6"/>
<stop offset="0.679688" stop-color="#D5D5D5"/>
<stop offset="0.6875" stop-color="#D5D5D5"/>
<stop offset="0.695313" stop-color="#D4D4D4"/>
<stop offset="0.703125" stop-color="#D4D4D4"/>
<stop offset="0.710938" stop-color="#D3D3D3"/>
<stop offset="0.71875" stop-color="#D3D3D3"/>
<stop offset="0.726562" stop-color="#D2D2D2"/>
<stop offset="0.734375" stop-color="#D2D2D2"/>
<stop offset="0.742188" stop-color="#D1D1D1"/>
<stop offset="0.75" stop-color="#D1D1D1"/>
<stop offset="0.757812" stop-color="#D0D0D0"/>
<stop offset="0.765625" stop-color="#D0D0D0"/>
<stop offset="0.773438" stop-color="#CFCFCF"/>
<stop offset="0.78125" stop-color="#CFCFCF"/>
<stop offset="0.789062" stop-color="#CECECE"/>
<stop offset="0.796875" stop-color="#CECECE"/>
<stop offset="0.804687" stop-color="#CDCDCD"/>
<stop offset="0.8125" stop-color="#CDCDCD"/>
<stop offset="0.820312" stop-color="#CCCCCC"/>
<stop offset="0.828125" stop-color="#CCCCCC"/>
<stop offset="0.835938" stop-color="#CBCBCB"/>
<stop offset="0.84375" stop-color="#CBCBCB"/>
<stop offset="0.851562" stop-color="#CACACA"/>
<stop offset="0.859375" stop-color="#CACACA"/>
<stop offset="0.867188" stop-color="#C9C9C9"/>
<stop offset="0.875" stop-color="#C9C9C9"/>
<stop offset="0.882812" stop-color="#C8C8C8"/>
<stop offset="0.890625" stop-color="#C8C8C8"/>
<stop offset="0.898438" stop-color="#C7C7C7"/>
<stop offset="0.90625" stop-color="#C7C7C7"/>
<stop offset="0.914062" stop-color="#C6C6C6"/>
<stop offset="0.921875" stop-color="#C6C6C6"/>
<stop offset="0.929688" stop-color="#C5C5C5"/>
<stop offset="0.9375" stop-color="#C5C5C5"/>
<stop offset="0.945313" stop-color="#C4C4C4"/>
<stop offset="0.953125" stop-color="#C4C4C4"/>
<stop offset="0.960938" stop-color="#C3C3C3"/>
<stop offset="0.96875" stop-color="#C3C3C3"/>
<stop offset="1" stop-color="#C2C2C2"/>
</linearGradient>
<linearGradient id="paint2_linear_2078_2034" x1="43.4014" y1="1.05093" x2="14.3589" y2="33.4886" gradientUnits="userSpaceOnUse">
<stop stop-color="white"/>
<stop offset="0.125" stop-color="white"/>
<stop offset="0.15625" stop-color="white"/>
<stop offset="0.164062" stop-color="#FEFEFE"/>
<stop offset="0.171875" stop-color="#FDFDFD"/>
<stop offset="0.179687" stop-color="#FCFCFC"/>
<stop offset="0.1875" stop-color="#FCFCFC"/>
<stop offset="0.195312" stop-color="#FBFBFB"/>
<stop offset="0.203125" stop-color="#FAFAFA"/>
<stop offset="0.210938" stop-color="#FAFAFA"/>
<stop offset="0.21875" stop-color="#F9F9F9"/>
<stop offset="0.226562" stop-color="#F8F8F8"/>
<stop offset="0.234375" stop-color="#F8F8F8"/>
<stop offset="0.242187" stop-color="#F7F7F7"/>
<stop offset="0.25" stop-color="#F6F6F6"/>
<stop offset="0.257812" stop-color="#F6F6F6"/>
<stop offset="0.265625" stop-color="#F5F5F5"/>
<stop offset="0.273438" stop-color="#F4F4F4"/>
<stop offset="0.28125" stop-color="#F4F4F4"/>
<stop offset="0.289062" stop-color="#F3F3F3"/>
<stop offset="0.296875" stop-color="#F2F2F2"/>
<stop offset="0.304688" stop-color="#F2F2F2"/>
<stop offset="0.3125" stop-color="#F1F1F1"/>
<stop offset="0.320312" stop-color="#F0F0F0"/>
<stop offset="0.328125" stop-color="#F0F0F0"/>
<stop offset="0.335938" stop-color="#EFEFEF"/>
<stop offset="0.34375" stop-color="#EEEEEE"/>
<stop offset="0.351563" stop-color="#EEEEEE"/>
<stop offset="0.359375" stop-color="#EDEDED"/>
<stop offset="0.367188" stop-color="#ECECEC"/>
<stop offset="0.375" stop-color="#ECECEC"/>
<stop offset="0.382812" stop-color="#EBEBEB"/>
<stop offset="0.390625" stop-color="#EAEAEA"/>
<stop offset="0.398437" stop-color="#EAEAEA"/>
<stop offset="0.40625" stop-color="#E9E9E9"/>
<stop offset="0.414062" stop-color="#E8E8E8"/>
<stop offset="0.421875" stop-color="#E8E8E8"/>
<stop offset="0.429688" stop-color="#E7E7E7"/>
<stop offset="0.4375" stop-color="#E6E6E6"/>
<stop offset="0.445312" stop-color="#E6E6E6"/>
<stop offset="0.453125" stop-color="#E5E5E5"/>
<stop offset="0.460938" stop-color="#E4E4E4"/>
<stop offset="0.46875" stop-color="#E4E4E4"/>
<stop offset="0.476563" stop-color="#E3E3E3"/>
<stop offset="0.484375" stop-color="#E2E2E2"/>
<stop offset="0.492188" stop-color="#E1E1E1"/>
<stop offset="0.5" stop-color="#E1E1E1"/>
<stop offset="0.507812" stop-color="#E0E0E0"/>
<stop offset="0.515625" stop-color="#DFDFDF"/>
<stop offset="0.523438" stop-color="#DFDFDF"/>
<stop offset="0.53125" stop-color="#DEDEDE"/>
<stop offset="0.539062" stop-color="#DDDDDD"/>
<stop offset="0.546875" stop-color="#DDDDDD"/>
<stop offset="0.554688" stop-color="#DCDCDC"/>
<stop offset="0.5625" stop-color="#DBDBDB"/>
<stop offset="0.570312" stop-color="#DBDBDB"/>
<stop offset="0.578125" stop-color="#DADADA"/>
<stop offset="0.585938" stop-color="#D9D9D9"/>
<stop offset="0.59375" stop-color="#D9D9D9"/>
<stop offset="0.601562" stop-color="#D8D8D8"/>
<stop offset="0.609375" stop-color="#D7D7D7"/>
<stop offset="0.617188" stop-color="#D7D7D7"/>
<stop offset="0.625" stop-color="#D6D6D6"/>
<stop offset="0.632812" stop-color="#D5D5D5"/>
<stop offset="0.640625" stop-color="#D5D5D5"/>
<stop offset="0.648438" stop-color="#D4D4D4"/>
<stop offset="0.65625" stop-color="#D3D3D3"/>
<stop offset="0.664062" stop-color="#D3D3D3"/>
<stop offset="0.671875" stop-color="#D2D2D2"/>
<stop offset="0.679688" stop-color="#D1D1D1"/>
<stop offset="0.6875" stop-color="#D1D1D1"/>
<stop offset="0.695312" stop-color="#D0D0D0"/>
<stop offset="0.703125" stop-color="#CFCFCF"/>
<stop offset="0.710938" stop-color="#CFCFCF"/>
<stop offset="0.71875" stop-color="#CECECE"/>
<stop offset="0.726562" stop-color="#CDCDCD"/>
<stop offset="0.734375" stop-color="#CDCDCD"/>
<stop offset="0.742187" stop-color="#CCCCCC"/>
<stop offset="0.75" stop-color="#CBCBCB"/>
<stop offset="0.757813" stop-color="#CBCBCB"/>
<stop offset="0.765625" stop-color="#CACACA"/>
<stop offset="0.773438" stop-color="#C9C9C9"/>
<stop offset="0.78125" stop-color="#C9C9C9"/>
<stop offset="0.789063" stop-color="#C8C8C8"/>
<stop offset="0.796875" stop-color="#C7C7C7"/>
<stop offset="0.804688" stop-color="#C7C7C7"/>
<stop offset="0.8125" stop-color="#C6C6C6"/>
<stop offset="0.820312" stop-color="#C5C5C5"/>
<stop offset="0.828125" stop-color="#C5C5C5"/>
<stop offset="0.835938" stop-color="#C4C4C4"/>
<stop offset="0.84375" stop-color="#C3C3C3"/>
<stop offset="0.875" stop-color="#C2C2C2"/>
<stop offset="1" stop-color="#C2C2C2"/>
</linearGradient>
<linearGradient id="paint3_linear_2078_2034" x1="47.1369" y1="51.8077" x2="34.6697" y2="-2.42272" gradientUnits="userSpaceOnUse">
<stop stop-color="white"/>
<stop offset="0.0625" stop-color="white"/>
<stop offset="0.0703125" stop-color="white"/>
<stop offset="0.078125" stop-color="#FEFEFE"/>
<stop offset="0.0859375" stop-color="#FEFEFE"/>
<stop offset="0.09375" stop-color="#FDFDFD"/>
<stop offset="0.101562" stop-color="#FCFCFC"/>
<stop offset="0.109375" stop-color="#FCFCFC"/>
<stop offset="0.117188" stop-color="#FBFBFB"/>
<stop offset="0.125" stop-color="#FBFBFB"/>
<stop offset="0.132812" stop-color="#FAFAFA"/>
<stop offset="0.140625" stop-color="#FAFAFA"/>
<stop offset="0.148438" stop-color="#F9F9F9"/>
<stop offset="0.15625" stop-color="#F9F9F9"/>
<stop offset="0.164062" stop-color="#F8F8F8"/>
<stop offset="0.171875" stop-color="#F8F8F8"/>
<stop offset="0.179688" stop-color="#F7F7F7"/>
<stop offset="0.1875" stop-color="#F6F6F6"/>
<stop offset="0.195312" stop-color="#F6F6F6"/>
<stop offset="0.203125" stop-color="#F5F5F5"/>
<stop offset="0.210938" stop-color="#F5F5F5"/>
<stop offset="0.21875" stop-color="#F4F4F4"/>
<stop offset="0.226562" stop-color="#F4F4F4"/>
<stop offset="0.234375" stop-color="#F3F3F3"/>
<stop offset="0.242188" stop-color="#F3F3F3"/>
<stop offset="0.25" stop-color="#F2F2F2"/>
<stop offset="0.257812" stop-color="#F2F2F2"/>
<stop offset="0.265625" stop-color="#F1F1F1"/>
<stop offset="0.273438" stop-color="#F0F0F0"/>
<stop offset="0.28125" stop-color="#F0F0F0"/>
<stop offset="0.289062" stop-color="#EFEFEF"/>
<stop offset="0.296875" stop-color="#EFEFEF"/>
<stop offset="0.304688" stop-color="#EEEEEE"/>
<stop offset="0.3125" stop-color="#EEEEEE"/>
<stop offset="0.320312" stop-color="#EDEDED"/>
<stop offset="0.328125" stop-color="#EDEDED"/>
<stop offset="0.335938" stop-color="#ECECEC"/>
<stop offset="0.34375" stop-color="#ECECEC"/>
<stop offset="0.351562" stop-color="#EBEBEB"/>
<stop offset="0.359375" stop-color="#EBEBEB"/>
<stop offset="0.367188" stop-color="#EAEAEA"/>
<stop offset="0.375" stop-color="#E9E9E9"/>
<stop offset="0.382812" stop-color="#E9E9E9"/>
<stop offset="0.390625" stop-color="#E8E8E8"/>
<stop offset="0.398438" stop-color="#E8E8E8"/>
<stop offset="0.40625" stop-color="#E7E7E7"/>
<stop offset="0.414062" stop-color="#E7E7E7"/>
<stop offset="0.421875" stop-color="#E6E6E6"/>
<stop offset="0.429688" stop-color="#E6E6E6"/>
<stop offset="0.4375" stop-color="#E5E5E5"/>
<stop offset="0.445312" stop-color="#E5E5E5"/>
<stop offset="0.453125" stop-color="#E4E4E4"/>
<stop offset="0.460938" stop-color="#E3E3E3"/>
<stop offset="0.46875" stop-color="#E3E3E3"/>
<stop offset="0.476562" stop-color="#E2E2E2"/>
<stop offset="0.484375" stop-color="#E2E2E2"/>
<stop offset="0.492188" stop-color="#E1E1E1"/>
<stop offset="0.5" stop-color="#E1E1E1"/>
<stop offset="0.507812" stop-color="#E0E0E0"/>
<stop offset="0.515625" stop-color="#E0E0E0"/>
<stop offset="0.523437" stop-color="#DFDFDF"/>
<stop offset="0.53125" stop-color="#DFDFDF"/>
<stop offset="0.539063" stop-color="#DEDEDE"/>
<stop offset="0.546875" stop-color="#DDDDDD"/>
<stop offset="0.554688" stop-color="#DDDDDD"/>
<stop offset="0.5625" stop-color="#DCDCDC"/>
<stop offset="0.570312" stop-color="#DCDCDC"/>
<stop offset="0.578125" stop-color="#DBDBDB"/>
<stop offset="0.585937" stop-color="#DBDBDB"/>
<stop offset="0.59375" stop-color="#DADADA"/>
<stop offset="0.601563" stop-color="#DADADA"/>
<stop offset="0.609375" stop-color="#D9D9D9"/>
<stop offset="0.617188" stop-color="#D9D9D9"/>
<stop offset="0.625" stop-color="#D8D8D8"/>
<stop offset="0.632812" stop-color="#D8D8D8"/>
<stop offset="0.640625" stop-color="#D7D7D7"/>
<stop offset="0.648437" stop-color="#D6D6D6"/>
<stop offset="0.65625" stop-color="#D6D6D6"/>
<stop offset="0.664063" stop-color="#D5D5D5"/>
<stop offset="0.671875" stop-color="#D5D5D5"/>
<stop offset="0.679688" stop-color="#D4D4D4"/>
<stop offset="0.6875" stop-color="#D4D4D4"/>
<stop offset="0.695312" stop-color="#D3D3D3"/>
<stop offset="0.703125" stop-color="#D3D3D3"/>
<stop offset="0.710937" stop-color="#D2D2D2"/>
<stop offset="0.71875" stop-color="#D2D2D2"/>
<stop offset="0.726563" stop-color="#D1D1D1"/>
<stop offset="0.734375" stop-color="#D0D0D0"/>
<stop offset="0.742188" stop-color="#D0D0D0"/>
<stop offset="0.75" stop-color="#CFCFCF"/>
<stop offset="0.757812" stop-color="#CFCFCF"/>
<stop offset="0.765625" stop-color="#CECECE"/>
<stop offset="0.773437" stop-color="#CECECE"/>
<stop offset="0.78125" stop-color="#CDCDCD"/>
<stop offset="0.789063" stop-color="#CDCDCD"/>
<stop offset="0.796875" stop-color="#CCCCCC"/>
<stop offset="0.804688" stop-color="#CCCCCC"/>
<stop offset="0.8125" stop-color="#CBCBCB"/>
<stop offset="0.820312" stop-color="#CBCBCB"/>
<stop offset="0.828125" stop-color="#CACACA"/>
<stop offset="0.835937" stop-color="#C9C9C9"/>
<stop offset="0.84375" stop-color="#C9C9C9"/>
<stop offset="0.851563" stop-color="#C8C8C8"/>
<stop offset="0.859375" stop-color="#C8C8C8"/>
<stop offset="0.867188" stop-color="#C7C7C7"/>
<stop offset="0.875" stop-color="#C7C7C7"/>
<stop offset="0.882812" stop-color="#C6C6C6"/>
<stop offset="0.890625" stop-color="#C6C6C6"/>
<stop offset="0.898437" stop-color="#C5C5C5"/>
<stop offset="0.90625" stop-color="#C5C5C5"/>
<stop offset="0.914063" stop-color="#C4C4C4"/>
<stop offset="0.921875" stop-color="#C3C3C3"/>
<stop offset="0.929688" stop-color="#C3C3C3"/>
<stop offset="0.9375" stop-color="#C2C2C2"/>
<stop offset="1" stop-color="#C2C2C2"/>
</linearGradient>
</defs>
</svg>
