<svg width="189" height="189" viewBox="0 0 189 189" fill="none" xmlns="http://www.w3.org/2000/svg">
<g filter="url(#filter0_d_2120_1112)">
<path d="M46.2979 1.08298C47.9265 2.1116 49.1049 3.43628 49.6729 5.36617C49.7644 6.10487 49.822 6.79222 49.8432 7.53219C49.8515 7.73904 49.8598 7.94589 49.8683 8.15901C49.9717 11.1346 49.9404 14.1151 49.9206 17.092C51.1468 17.092 52.3729 17.092 53.6362 17.092C53.718 16.92 53.7997 16.7481 53.8839 16.5709C54.0251 16.6131 54.1662 16.6554 54.3116 16.699C54.8813 16.833 55.3756 16.8651 55.9585 16.866C56.2866 16.8668 56.2866 16.8668 56.6213 16.8675C56.8624 16.8664 57.1035 16.8652 57.3519 16.864C57.6108 16.8637 57.8698 16.8634 58.1366 16.8631C59.7081 16.8553 61.2774 16.8207 62.8479 16.7632C63.5755 16.7369 64.3032 16.7107 65.0308 16.6849C65.2167 16.6782 65.4026 16.6716 65.5941 16.6648C68.9061 16.5516 72.201 16.6103 75.5123 16.7227C78.2795 16.8158 81.0195 16.8443 83.7852 16.6538C84.9781 16.5745 86.0823 16.6039 87.2674 16.7665C88.2194 16.8783 89.1698 16.8698 90.1267 16.864C90.3301 16.8635 90.5334 16.863 90.7429 16.8625C92.3365 16.8506 93.9145 16.7572 95.4989 16.5709C95.4989 16.7428 95.4989 16.9148 95.4989 17.092C95.7748 17.0436 96.0507 16.9953 96.3349 16.9454C97.2328 16.8314 97.2328 16.8314 97.7283 17.092C97.81 16.92 97.8917 16.7481 97.976 16.5709C97.976 16.7428 97.976 16.9148 97.976 17.092C98.3438 16.963 98.3438 16.963 98.7191 16.8314C98.8826 16.9174 99.0461 17.0034 99.2145 17.092C99.2962 16.92 99.378 16.7481 99.4622 16.5709C99.6557 16.5866 99.8492 16.6024 100.049 16.6187C103.235 16.8613 106.426 16.9733 109.618 17.092C109.614 16.7807 109.61 16.4693 109.606 16.1485C109.593 14.9845 109.584 13.8204 109.577 12.6563C109.574 12.1542 109.569 11.652 109.562 11.1499C109.553 10.4247 109.549 9.69971 109.546 8.97451C109.542 8.75292 109.538 8.53134 109.534 8.30304C109.533 5.84014 110.162 4.00744 111.792 2.22706C113.354 0.783688 114.943 0.482619 116.995 0.560809C118.711 0.8083 120.024 1.54175 121.121 2.95585C122.364 4.75096 122.609 6.81741 122.572 8.97451C122.571 9.20832 122.57 9.44214 122.568 9.68304C122.564 10.421 122.555 11.1589 122.546 11.8968C122.542 12.4008 122.538 12.9048 122.535 13.4089C122.527 14.6366 122.514 15.8643 122.499 17.092C122.663 17.092 122.826 17.092 122.994 17.092C122.913 16.7481 122.831 16.4041 122.747 16.0497C122.954 16.2432 122.954 16.2432 123.165 16.4406C123.832 16.8959 124.197 16.8998 124.976 16.8314C125.058 16.6595 125.14 16.4875 125.224 16.3103C125.387 16.3963 125.551 16.4823 125.719 16.5709C125.719 16.7428 125.719 16.9148 125.719 17.092C125.987 16.955 125.987 16.955 126.261 16.8151C127.043 16.5409 127.412 16.6307 128.196 16.8314C128.36 16.7454 128.523 16.6595 128.692 16.5709C128.966 16.6308 128.966 16.6308 129.246 16.692C130.028 16.8514 130.671 16.7996 131.463 16.7174C134.991 16.3934 134.991 16.3934 136.161 16.7195C136.638 16.8903 136.638 16.8903 137.114 16.5709C137.556 16.5919 137.997 16.6309 138.438 16.6788C139.502 16.7833 140.558 16.8576 141.627 16.8864C142.011 16.8975 142.011 16.8975 142.404 16.9088C142.923 16.9224 143.442 16.9339 143.962 16.9434C145.576 16.9942 147.032 17.2293 148.589 17.683C149.22 17.8646 149.848 18.0074 150.49 18.1343C150.49 18.3063 150.49 18.4783 150.49 18.6555C150.703 18.7176 150.916 18.7797 151.135 18.8438C152.057 19.2084 152.772 19.7015 153.54 20.3329C153.68 20.4478 153.82 20.5627 153.964 20.6811C157.055 23.3041 158.996 26.7876 159.655 30.9024C159.781 32.6384 159.728 34.3845 159.707 36.1238C159.704 36.6467 159.701 37.1697 159.698 37.6926C159.692 38.8131 159.683 39.9336 159.674 41.0541C159.659 42.8271 159.653 44.6001 159.649 46.3731C159.647 46.9816 159.646 47.59 159.644 48.1985C159.643 48.6553 159.643 48.6553 159.642 49.1213C159.631 53.2452 159.613 57.3688 159.576 61.4925C159.551 64.2802 159.539 67.0677 159.54 69.8556C159.541 71.329 159.534 72.8018 159.513 74.2751C159.493 75.6598 159.489 77.0435 159.498 78.4284C159.498 78.9355 159.493 79.4426 159.48 79.9495C159.336 82.4906 159.336 82.4906 160.238 84.7446C161.053 85.4815 161.953 85.9689 162.927 86.4335C164.913 87.4713 166.633 89.2353 168.249 90.802C168.776 91.313 169.314 91.8083 169.858 92.3003C178.462 100.229 183.924 112.546 184.921 124.449C184.957 125.208 184.968 125.966 184.972 126.727C184.973 126.937 184.975 127.148 184.976 127.365C184.978 127.808 184.98 128.252 184.981 128.695C184.983 129.356 184.991 130.017 184.999 130.678C185.023 134.517 184.605 138.295 183.637 142.005C183.585 142.205 183.533 142.405 183.48 142.611C179.846 156.153 171.154 167.393 159.598 174.335C152.123 178.701 144.094 180.275 135.628 180.472C135.443 180.478 135.258 180.484 135.067 180.489C133.18 180.547 131.522 180.367 129.683 179.951C129.233 179.854 128.783 179.757 128.334 179.661C125.769 179.095 123.268 178.473 120.785 177.584C119.996 177.296 119.996 177.296 119.031 177.345C119.031 177.173 119.031 177.001 119.031 176.824C118.75 176.738 118.469 176.652 118.18 176.563C115.48 175.606 112.917 174.232 110.501 172.655C110.349 172.556 110.197 172.458 110.041 172.356C109.891 172.256 109.742 172.156 109.588 172.052C109.44 171.953 109.291 171.853 109.138 171.75C108.627 171.352 108.627 171.352 108.196 170.837C106.792 169.29 105.471 169.066 103.527 169.007C102.46 168.989 101.394 168.997 100.327 169.007C99.7588 169.005 99.1903 169.002 98.6218 168.998C97.1321 168.991 95.6426 168.996 94.153 169.003C92.6302 169.009 91.1076 169.003 89.5849 168.998C86.602 168.989 83.6193 168.994 80.6364 169.007C80.6364 169.179 80.6364 169.351 80.6364 169.528C80.1459 169.528 79.6555 169.528 79.1502 169.528C79.1502 169.442 79.1502 169.356 79.1502 169.267C77.6788 169.181 76.2074 169.095 74.6914 169.007C74.6914 169.179 74.6914 169.351 74.6914 169.528C74.201 169.528 73.7105 169.528 73.2052 169.528C73.2052 169.442 73.2052 169.356 73.2052 169.267C71.0798 169.181 68.9545 169.095 66.7648 169.007C66.7648 169.179 66.7648 169.351 66.7648 169.528C66.2743 169.528 65.7838 169.528 65.2785 169.528C65.2785 169.442 65.2785 169.356 65.2785 169.267C63.1532 169.181 61.0278 169.095 58.8381 169.007C58.7564 169.179 58.6746 169.351 58.5904 169.528C58.5904 169.356 58.5904 169.184 58.5904 169.007C57.446 169.093 56.3016 169.179 55.1225 169.267C55.1225 169.353 55.1225 169.439 55.1225 169.528C54.5503 169.528 53.9781 169.528 53.3885 169.528C53.3885 169.442 53.3885 169.356 53.3885 169.267C52.5711 169.181 51.7537 169.095 50.9114 169.007C50.8297 169.179 50.748 169.351 50.6637 169.528C50.582 169.442 50.5002 169.356 50.416 169.267C50.416 169.353 50.416 169.439 50.416 169.528C49.4955 169.58 49.2339 169.568 48.4344 169.007C48.4344 169.179 48.4344 169.351 48.4344 169.528C48.3037 169.486 48.173 169.443 48.0384 169.4C47.2979 169.235 46.6102 169.236 45.853 169.238C45.5307 169.238 45.2085 169.238 44.8764 169.238C44.5258 169.239 44.1753 169.241 43.8247 169.242C43.4651 169.242 43.1055 169.243 42.746 169.243C41.8012 169.244 40.8564 169.247 39.9117 169.249C38.947 169.252 37.9823 169.253 37.0175 169.255C35.1259 169.257 33.2342 169.262 31.3425 169.267C31.3425 169.353 30 169.179 30 169.267C29.4278 169.267 30.192 169.242 29.6531 169.265C29.6531 169.179 29.6086 169.356 29.6086 169.267C29.403 169.266 29.403 169.266 29.1932 169.265C27.7461 169.253 26.2992 169.235 24.8521 169.213C24.3146 169.206 23.777 169.2 23.2394 169.197C17.791 169.157 12.9496 168.529 8.82333 164.399C4.25748 159.075 4.05631 153.079 4.05984 146.28C4.05919 145.78 4.05845 145.281 4.05761 144.781C4.05562 143.417 4.05516 142.053 4.05498 140.688C4.05452 139.214 4.05265 137.739 4.05098 136.264C4.04763 133.045 4.04613 129.826 4.04503 126.606C4.04435 124.595 4.0433 122.584 4.04219 120.573C4.03917 115.001 4.03661 109.429 4.03578 103.857C4.03572 103.498 4.03567 103.138 4.03561 102.778C4.03556 102.418 4.0355 102.057 4.03545 101.697C4.03534 100.974 4.03523 100.251 4.03512 99.5275C4.03509 99.3482 4.03506 99.1689 4.03503 98.9842C4.03413 93.1662 4.03019 87.3483 4.02442 81.5304C4.01832 75.3719 4.01493 69.2134 4.01463 63.055C4.0144 59.7006 4.01298 56.3462 4.00848 52.9918C4.00467 50.1371 4.0034 47.2825 4.00545 44.4278C4.00641 42.9719 4.00618 41.516 4.00271 40.0601C3.99955 38.7264 3.99985 37.3927 4.00285 36.059C4.00334 35.5776 4.00258 35.0961 4.00041 34.6146C3.98018 29.8001 4.6921 25.7089 7.99119 22.106C8.17671 21.9132 8.36223 21.7204 8.55337 21.5218C8.70568 21.3558 8.85799 21.1899 9.01492 21.0189C13.1771 16.8 19.0206 16.7743 24.4318 16.8396C25.8306 16.8237 27.2242 16.6923 28.6177 16.5709C28.6177 16.7428 28.6177 16.9148 28.6177 17.092C28.8064 17.0285 28.8064 17.0285 28.999 16.9638C31.5248 16.4155 34.491 16.8574 37.0398 17.092C37.0369 16.7665 37.034 16.441 37.0311 16.1057C37.015 13.5461 37.0303 10.9865 37.1017 8.42791C37.1052 8.18336 37.1087 7.93881 37.1123 7.68684C37.1774 5.77395 37.576 4.18029 38.7476 2.68103C40.9163 0.813205 43.559 -0.21999 46.2979 1.08298Z" fill="#FEE7C0"/>
<path d="M136.203 78.5054C136.858 78.5062 137.513 78.5001 138.168 78.4935C145.3 78.4655 152.328 80.1753 158.572 83.8368C159.246 84.2266 159.916 84.5724 160.615 84.9066C163.679 86.5046 166.36 88.8924 168.821 91.3558C169.17 91.6781 169.521 91.9986 169.873 92.3167C178.474 100.226 183.926 112.566 184.922 124.449C184.957 125.208 184.968 125.966 184.972 126.727C184.973 126.937 184.975 127.148 184.976 127.365C184.979 127.808 184.98 128.252 184.981 128.696C184.983 129.356 184.991 130.017 184.999 130.678C185.023 134.517 184.605 138.295 183.637 142.005C183.585 142.205 183.533 142.405 183.48 142.611C179.846 156.153 171.154 167.393 159.598 174.335C152.123 178.701 144.094 180.275 135.628 180.472C135.443 180.478 135.258 180.484 135.067 180.49C133.18 180.547 131.522 180.367 129.683 179.951C129.233 179.854 128.783 179.758 128.334 179.661C125.769 179.095 123.268 178.473 120.786 177.585C119.997 177.296 119.997 177.296 119.031 177.345C119.031 177.173 119.031 177.001 119.031 176.824C118.75 176.738 118.469 176.652 118.18 176.564C110.027 173.673 102.903 167.267 97.7284 160.147C97.5301 159.875 97.3318 159.603 97.1275 159.322C90.1033 149.445 87.037 136.442 88.5409 124.232C89.0718 120.475 89.837 116.826 91.0403 113.244C91.1034 113.051 91.1665 112.858 91.2315 112.659C93.4068 106.087 96.862 100.471 101.196 95.2644C101.46 94.9281 101.723 94.5916 101.986 94.2547C102.794 93.2702 103.719 92.4501 104.664 91.6164C104.887 91.4145 105.109 91.2126 105.339 91.0046C108.124 88.5073 111.1 86.4038 114.325 84.5809C114.478 84.4939 114.631 84.4069 114.788 84.3172C119.271 81.7909 123.975 80.2308 128.94 79.1088C129.159 79.0572 129.379 79.0056 129.605 78.9525C131.795 78.4987 133.98 78.4996 136.203 78.5054Z" fill="#FFA07A"/>
<path d="M46.298 1.08298C47.9266 2.1116 49.1051 3.43628 49.673 5.36617C49.7645 6.10487 49.8221 6.79222 49.8433 7.53219C49.8516 7.73904 49.8599 7.94589 49.8684 8.15901C49.9718 11.1346 49.9405 14.1151 49.9207 17.092C51.1469 17.092 52.373 17.092 53.6363 17.092C53.7181 16.92 53.7998 16.7481 53.884 16.5709C54.0252 16.6131 54.1663 16.6554 54.3117 16.699C54.8814 16.833 55.3757 16.8651 55.9586 16.866C56.2867 16.8668 56.2867 16.8668 56.6214 16.8675C56.8625 16.8664 57.1036 16.8652 57.352 16.864C57.6109 16.8637 57.8699 16.8634 58.1367 16.8631C59.7082 16.8553 61.2775 16.8207 62.848 16.7632C63.5756 16.7369 64.3033 16.7107 65.0309 16.6849C65.2168 16.6782 65.4027 16.6716 65.5942 16.6648C68.9062 16.5516 72.2011 16.6103 75.5124 16.7227C78.2796 16.8158 81.0196 16.8443 83.7854 16.6538C84.9783 16.5745 86.0824 16.6039 87.2675 16.7665C88.2195 16.8783 89.1699 16.8698 90.1268 16.864C90.3302 16.8635 90.5335 16.863 90.743 16.8625C92.3366 16.8506 93.9146 16.7572 95.499 16.5709C95.499 16.7428 95.499 16.9148 95.499 17.092C95.7749 17.0436 96.0508 16.9953 96.335 16.9454C97.233 16.8314 97.233 16.8314 97.7284 17.092C97.8101 16.92 97.8919 16.7481 97.9761 16.5709C97.9761 16.7428 97.9761 16.9148 97.9761 17.092C98.3439 16.963 98.3439 16.963 98.7192 16.8314C98.8827 16.9174 99.0462 17.0034 99.2146 17.092C99.2964 16.92 99.3781 16.7481 99.4623 16.5709C99.6558 16.5866 99.8493 16.6024 100.049 16.6187C103.235 16.8613 106.426 16.9733 109.618 17.092C109.614 16.7807 109.611 16.4693 109.607 16.1485C109.593 14.9845 109.585 13.8204 109.578 12.6563C109.574 12.1542 109.569 11.652 109.562 11.1499C109.553 10.4247 109.549 9.69971 109.546 8.97451C109.542 8.75292 109.538 8.53134 109.534 8.30304C109.534 5.84014 110.162 4.00744 111.793 2.22706C113.354 0.783688 114.943 0.482619 116.995 0.560809C118.711 0.8083 120.024 1.54175 121.121 2.95585C122.364 4.75096 122.609 6.81741 122.572 8.97451C122.571 9.20832 122.57 9.44214 122.569 9.68304C122.564 10.421 122.555 11.1589 122.546 11.8968C122.542 12.4008 122.538 12.9048 122.535 13.4089C122.527 14.6366 122.515 15.8643 122.499 17.092C122.663 17.092 122.826 17.092 122.995 17.092C122.913 16.7481 122.831 16.4041 122.747 16.0497C122.954 16.2432 122.954 16.2432 123.165 16.4406C123.832 16.8959 124.197 16.8998 124.976 16.8314C125.058 16.6595 125.14 16.4875 125.224 16.3103C125.387 16.3963 125.551 16.4823 125.719 16.5709C125.719 16.7428 125.719 16.9148 125.719 17.092C125.988 16.955 125.988 16.955 126.261 16.8151C127.043 16.5409 127.412 16.6307 128.196 16.8314C128.36 16.7454 128.523 16.6595 128.692 16.5709C128.966 16.6308 128.966 16.6308 129.246 16.692C130.028 16.8514 130.671 16.7996 131.463 16.7174C134.991 16.3934 134.991 16.3934 136.161 16.7195C136.638 16.8903 136.638 16.8903 137.114 16.5709C137.556 16.5919 137.997 16.6309 138.438 16.6788C139.502 16.7833 140.558 16.8576 141.627 16.8864C142.011 16.8975 142.011 16.8975 142.404 16.9088C142.923 16.9224 143.442 16.9339 143.962 16.9434C145.576 16.9942 147.032 17.2293 148.589 17.683C149.22 17.8646 149.848 18.0074 150.49 18.1343C150.49 18.3063 150.49 18.4783 150.49 18.6555C150.703 18.7176 150.916 18.7797 151.136 18.8438C152.057 19.2084 152.772 19.7015 153.54 20.3329C153.68 20.4478 153.82 20.5627 153.964 20.6811C157.061 23.3091 158.984 26.7854 159.655 30.9024C159.795 32.658 159.764 34.4247 159.762 36.1849C159.765 36.7142 159.767 37.2435 159.77 37.7728C159.777 39.2015 159.779 40.6301 159.781 42.0587C159.783 43.5548 159.79 45.0509 159.796 46.547C159.806 49.3763 159.813 52.2057 159.819 55.035C159.826 58.2577 159.837 61.4804 159.848 64.7031C159.871 71.329 159.889 77.9549 159.903 84.5808C159.116 84.2525 158.346 83.9108 157.584 83.5232C157.384 83.4226 157.185 83.322 156.979 83.2183C156.568 83.0097 156.156 82.8007 155.745 82.5913C155.544 82.4904 155.344 82.3895 155.138 82.2855C154.959 82.1946 154.78 82.1038 154.595 82.0102C153.738 81.6122 152.854 81.279 151.976 80.9327C151.976 71.5599 151.976 62.187 151.976 52.5301C103.175 52.5301 54.3745 52.5301 4.09473 52.5301C4.09473 26.3613 4.09473 26.3613 7.99129 22.106C8.17681 21.9132 8.36233 21.7204 8.55347 21.5218C8.70578 21.3558 8.85809 21.1899 9.01502 21.0189C13.1772 16.8 19.0207 16.7743 24.4319 16.8396C25.8307 16.8237 27.2243 16.6923 28.6178 16.5709C28.6178 16.7428 28.6178 16.9148 28.6178 17.092C28.8065 17.0285 28.8065 17.0285 28.9991 16.9638C31.5249 16.4155 34.4912 16.8574 37.0399 17.092C37.037 16.7665 37.0341 16.441 37.0312 16.1057C37.0151 13.5461 37.0304 10.9865 37.1018 8.42791C37.1053 8.18336 37.1088 7.93881 37.1124 7.68684C37.1775 5.77395 37.5761 4.18029 38.7477 2.68103C40.9164 0.813205 43.5591 -0.21999 46.298 1.08298Z" fill="#4058DB"/>
<path d="M157.625 103.035C158.712 103.648 159.519 104.598 160.367 105.525C160.555 105.721 160.743 105.918 160.936 106.121C161.963 107.22 162.758 108.095 162.948 109.68C162.89 111.047 162.609 111.836 161.715 112.837C161.414 113.176 161.414 113.176 161.106 113.521C159.711 115.038 158.292 116.529 156.869 118.016C156.555 118.344 156.242 118.673 155.928 119.002C155.354 119.603 154.779 120.205 154.205 120.806C154.079 120.937 153.954 121.068 153.825 121.203C153.477 121.568 153.128 121.932 152.779 122.296C152.039 123.082 151.364 123.921 150.681 124.763C150.536 124.917 150.391 125.072 150.242 125.23C150.079 125.23 149.915 125.23 149.747 125.23C149.693 125.372 149.64 125.513 149.584 125.658C149.136 126.485 148.529 127.108 147.889 127.771C147.766 127.903 147.642 128.035 147.515 128.171C146.59 129.139 146.59 129.139 146.031 129.139C147.461 130.955 149.048 132.597 150.64 134.251C151.123 134.754 151.605 135.257 152.086 135.76C153.454 137.19 154.823 138.619 156.194 140.045C157.036 140.921 157.876 141.799 158.715 142.678C159.034 143.012 159.354 143.344 159.674 143.676C160.121 144.14 160.566 144.605 161.01 145.071C161.142 145.207 161.274 145.343 161.41 145.483C162.469 146.602 162.943 147.579 162.984 149.154C162.994 149.36 163.004 149.566 163.014 149.778C162.634 151.776 161.129 153.248 159.795 154.626C159.635 154.797 159.476 154.967 159.312 155.143C158.065 156.448 156.933 157.385 155.104 157.428C154.779 157.444 154.779 157.444 154.448 157.461C152.037 156.872 149.974 153.937 148.284 152.145C147.954 151.797 147.623 151.448 147.293 151.1C146.428 150.189 145.565 149.276 144.703 148.363C143.82 147.429 142.936 146.497 142.053 145.564C140.322 143.739 138.594 141.912 136.866 140.083C135.826 140.51 135.135 141.317 134.369 142.138C134.22 142.295 134.072 142.452 133.919 142.613C133.598 142.954 133.277 143.294 132.957 143.635C132.45 144.175 131.941 144.714 131.432 145.252C130.352 146.394 129.274 147.538 128.196 148.682C126.947 150.008 125.698 151.334 124.446 152.657C123.945 153.187 123.445 153.719 122.946 154.251C122.639 154.576 122.331 154.901 122.024 155.226C121.886 155.374 121.747 155.523 121.604 155.676C120.437 156.904 119.719 157.357 118.071 157.379C117.822 157.386 117.572 157.394 117.315 157.401C115.025 157.04 112.903 154.237 111.569 152.346C110.853 151.116 110.765 150.124 110.857 148.682C111.326 147.018 111.942 146.051 113.117 144.854C113.269 144.694 113.421 144.533 113.578 144.368C114.078 143.843 114.582 143.323 115.086 142.803C115.435 142.438 115.784 142.073 116.133 141.708C117.047 140.75 117.966 139.797 118.885 138.844C119.824 137.87 120.759 136.893 121.695 135.915C123.528 134 125.366 132.089 127.206 130.181C126.8 129.089 126.036 128.366 125.256 127.563C125.107 127.407 124.959 127.252 124.805 127.092C124.483 126.756 124.16 126.42 123.836 126.085C123.324 125.554 122.813 125.021 122.303 124.487C120.852 122.971 119.398 121.458 117.943 119.947C117.052 119.021 116.164 118.094 115.276 117.165C114.938 116.812 114.599 116.46 114.26 116.109C113.784 115.617 113.311 115.122 112.839 114.627C112.698 114.484 112.558 114.34 112.414 114.192C111.34 113.06 110.676 112.042 110.501 110.41C110.591 108.27 111.907 106.765 113.303 105.345C113.451 105.187 113.6 105.029 113.753 104.866C115.041 103.53 116.17 102.71 118.04 102.707C118.286 102.702 118.531 102.697 118.783 102.692C120.386 102.971 121.493 104.294 122.591 105.465C122.741 105.622 122.891 105.78 123.046 105.943C123.538 106.46 124.028 106.98 124.518 107.499C124.86 107.86 125.202 108.221 125.544 108.581C126.442 109.528 127.338 110.476 128.234 111.424C129.15 112.393 130.067 113.36 130.984 114.327C132.781 116.223 134.576 118.12 136.371 120.019C137.497 119.029 138.565 118.005 139.593 116.903C139.73 116.757 139.868 116.61 140.01 116.459C140.305 116.145 140.601 115.83 140.896 115.515C141.364 115.016 141.833 114.518 142.302 114.02C143.636 112.606 144.969 111.191 146.298 109.772C147.114 108.902 147.932 108.033 148.752 107.167C149.062 106.837 149.372 106.507 149.681 106.176C150.113 105.713 150.548 105.253 150.984 104.793C151.109 104.657 151.234 104.521 151.364 104.381C153.17 102.496 155.254 102.06 157.625 103.035Z" fill="#F2F2F2"/>
<path d="M54.8223 128.542C55.1167 128.54 55.1167 128.54 55.417 128.537C56.0665 128.532 56.7159 128.531 57.3653 128.53C57.8167 128.529 58.2681 128.527 58.7195 128.525C59.6661 128.522 60.6127 128.521 61.5593 128.521C62.7719 128.521 63.9843 128.514 65.1968 128.505C66.1293 128.499 67.0617 128.498 67.9942 128.499C68.4412 128.498 68.8882 128.496 69.3352 128.492C69.9608 128.487 70.5861 128.488 71.2117 128.491C71.396 128.488 71.5803 128.485 71.7702 128.482C72.9781 128.498 73.5969 128.754 74.4437 129.66C74.8297 130.472 74.7345 131.337 74.7391 132.229C74.7422 132.546 74.7422 132.546 74.7453 132.87C74.7514 133.571 74.7555 134.273 74.7591 134.974C74.7604 135.214 74.7617 135.453 74.7631 135.7C74.7697 136.967 74.7745 138.234 74.7781 139.501C74.7822 140.81 74.7933 142.119 74.8059 143.428C74.8143 144.434 74.8171 145.44 74.8185 146.446C74.8202 146.929 74.824 147.412 74.8299 147.894C74.8377 148.57 74.8377 149.245 74.8359 149.921C74.84 150.12 74.844 150.319 74.8482 150.524C74.8366 151.57 74.7317 152.018 74.094 152.839C73.0827 153.68 72.3723 153.673 71.1245 153.675C70.841 153.677 70.841 153.677 70.5519 153.679C69.9252 153.683 69.2985 153.685 68.6719 153.686C68.2368 153.687 67.8017 153.689 67.3667 153.69C66.4536 153.693 65.5404 153.695 64.6273 153.696C63.4578 153.697 62.2884 153.703 61.1189 153.711C60.2198 153.716 59.3207 153.717 58.4216 153.717C57.9905 153.718 57.5594 153.72 57.1284 153.724C56.5247 153.728 55.9212 153.728 55.3176 153.726C55.1398 153.728 54.9621 153.731 54.7789 153.733C53.424 153.721 52.6784 153.378 51.707 152.41C51.2729 151.541 51.3032 150.708 51.3107 149.75C51.3093 149.543 51.308 149.337 51.3067 149.124C51.3034 148.442 51.3056 147.761 51.3081 147.079C51.3076 146.605 51.3069 146.13 51.306 145.656C51.3049 144.661 51.3065 143.667 51.3099 142.673C51.3142 141.399 51.3117 140.126 51.3073 138.853C51.3046 137.873 51.3054 136.893 51.3074 135.913C51.3079 135.444 51.3073 134.974 51.3055 134.505C51.3036 133.848 51.3065 133.192 51.3107 132.535C51.3091 132.341 51.3076 132.148 51.3061 131.948C51.3195 130.793 51.4684 130.054 52.1499 129.139C53.065 128.497 53.7635 128.541 54.8223 128.542Z" fill="#FBBD7B"/>
<path d="M54.8223 128.542C55.1167 128.54 55.1167 128.54 55.417 128.537C56.0665 128.532 56.7159 128.531 57.3653 128.53C57.8167 128.529 58.2681 128.527 58.7195 128.525C59.6661 128.522 60.6127 128.521 61.5593 128.521C62.7719 128.521 63.9843 128.514 65.1968 128.505C66.1293 128.499 67.0617 128.498 67.9942 128.499C68.4412 128.498 68.8882 128.496 69.3352 128.492C69.9608 128.487 70.5861 128.488 71.2117 128.491C71.396 128.488 71.5803 128.485 71.7702 128.482C72.9781 128.498 73.5969 128.754 74.4437 129.66C74.8297 130.472 74.7345 131.337 74.7391 132.229C74.7422 132.546 74.7422 132.546 74.7453 132.87C74.7514 133.571 74.7555 134.273 74.7591 134.974C74.7604 135.214 74.7617 135.453 74.7631 135.7C74.7697 136.967 74.7745 138.234 74.7781 139.501C74.7822 140.81 74.7933 142.119 74.8059 143.428C74.8143 144.434 74.8171 145.44 74.8185 146.446C74.8202 146.929 74.824 147.412 74.8299 147.894C74.8377 148.57 74.8377 149.245 74.8359 149.921C74.84 150.12 74.844 150.319 74.8482 150.524C74.8366 151.57 74.7317 152.018 74.094 152.839C73.0827 153.68 72.3723 153.673 71.1245 153.675C70.841 153.677 70.841 153.677 70.5519 153.679C69.9252 153.683 69.2985 153.685 68.6719 153.686C68.2368 153.687 67.8017 153.689 67.3667 153.69C66.4536 153.693 65.5404 153.695 64.6273 153.696C63.4578 153.697 62.2884 153.703 61.1189 153.711C60.2198 153.716 59.3207 153.717 58.4216 153.717C57.9905 153.718 57.5594 153.72 57.1284 153.724C56.5247 153.728 55.9212 153.728 55.3176 153.726C55.1398 153.728 54.9621 153.731 54.7789 153.733C53.424 153.721 52.6784 153.378 51.707 152.41C51.2729 151.541 51.3032 150.708 51.3107 149.75C51.3093 149.543 51.308 149.337 51.3067 149.124C51.3034 148.442 51.3056 147.761 51.3081 147.079C51.3076 146.605 51.3069 146.13 51.306 145.656C51.3049 144.661 51.3065 143.667 51.3099 142.673C51.3142 141.399 51.3117 140.126 51.3073 138.853C51.3046 137.873 51.3054 136.893 51.3074 135.913C51.3079 135.444 51.3073 134.974 51.3055 134.505C51.3036 133.848 51.3065 133.192 51.3107 132.535C51.3091 132.341 51.3076 132.148 51.3061 131.948C51.3195 130.793 51.4684 130.054 52.1499 129.139C53.065 128.497 53.7635 128.541 54.8223 128.542Z" fill="#637DFF"/>
<path d="M54.8223 128.542C55.1167 128.54 55.1167 128.54 55.417 128.537C56.0665 128.532 56.7159 128.531 57.3653 128.53C57.8167 128.529 58.2681 128.527 58.7195 128.525C59.6661 128.522 60.6127 128.521 61.5593 128.521C62.7719 128.521 63.9843 128.514 65.1968 128.505C66.1293 128.499 67.0617 128.498 67.9942 128.499C68.4412 128.498 68.8882 128.496 69.3352 128.492C69.9608 128.487 70.5861 128.488 71.2117 128.491C71.396 128.488 71.5803 128.485 71.7702 128.482C72.9781 128.498 73.5969 128.754 74.4437 129.66C74.8297 130.472 74.7345 131.337 74.7391 132.229C74.7422 132.546 74.7422 132.546 74.7453 132.87C74.7514 133.571 74.7555 134.273 74.7591 134.974C74.7604 135.214 74.7617 135.453 74.7631 135.7C74.7697 136.967 74.7745 138.234 74.7781 139.501C74.7822 140.81 74.7933 142.119 74.8059 143.428C74.8143 144.434 74.8171 145.44 74.8185 146.446C74.8202 146.929 74.824 147.412 74.8299 147.894C74.8377 148.57 74.8377 149.245 74.8359 149.921C74.84 150.12 74.844 150.319 74.8482 150.524C74.8366 151.57 74.7317 152.018 74.094 152.839C73.0827 153.68 72.3723 153.673 71.1245 153.675C70.841 153.677 70.841 153.677 70.5519 153.679C69.9252 153.683 69.2985 153.685 68.6719 153.686C68.2368 153.687 67.8017 153.689 67.3667 153.69C66.4536 153.693 65.5404 153.695 64.6273 153.696C63.4578 153.697 62.2884 153.703 61.1189 153.711C60.2198 153.716 59.3207 153.717 58.4216 153.717C57.9905 153.718 57.5594 153.72 57.1284 153.724C56.5247 153.728 55.9212 153.728 55.3176 153.726C55.1398 153.728 54.9621 153.731 54.7789 153.733C53.424 153.721 52.6784 153.378 51.707 152.41C51.2729 151.541 51.3032 150.708 51.3107 149.75C51.3093 149.543 51.308 149.337 51.3067 149.124C51.3034 148.442 51.3056 147.761 51.3081 147.079C51.3076 146.605 51.3069 146.13 51.306 145.656C51.3049 144.661 51.3065 143.667 51.3099 142.673C51.3142 141.399 51.3117 140.126 51.3073 138.853C51.3046 137.873 51.3054 136.893 51.3074 135.913C51.3079 135.444 51.3073 134.974 51.3055 134.505C51.3036 133.848 51.3065 133.192 51.3107 132.535C51.3091 132.341 51.3076 132.148 51.3061 131.948C51.3195 130.793 51.4684 130.054 52.1499 129.139C53.065 128.497 53.7635 128.541 54.8223 128.542Z" fill="#637DFF"/>
<path d="M54.817 63.6846C55.1149 63.6814 55.1149 63.6814 55.4189 63.6781C56.0777 63.6716 56.7365 63.6673 57.3954 63.6636C57.7326 63.6615 57.7326 63.6615 58.0767 63.6594C59.2666 63.6524 60.4566 63.6474 61.6465 63.6436C62.876 63.6393 64.1054 63.6276 65.3348 63.6143C66.2798 63.6055 67.2248 63.6025 68.1699 63.6011C68.6231 63.5993 69.0763 63.5953 69.5295 63.5891C70.1641 63.5809 70.7982 63.5808 71.4328 63.5828C71.6198 63.5785 71.8068 63.5742 71.9995 63.5698C72.9244 63.5813 73.4198 63.711 74.1886 64.2637C74.8211 65.2373 74.8646 66.0103 74.8477 67.1503C74.8495 67.3593 74.8513 67.5684 74.8531 67.7837C74.8573 68.4727 74.8525 69.1612 74.8472 69.8502C74.8474 70.3301 74.848 70.81 74.849 71.2899C74.8497 72.2949 74.8461 73.2998 74.8393 74.3047C74.8308 75.592 74.8323 76.8789 74.837 78.1662C74.8396 79.1569 74.8374 80.1476 74.8337 81.1384C74.8324 81.6129 74.8325 82.0875 74.834 82.5621C74.8354 83.2258 74.8303 83.8891 74.8236 84.5528C74.8252 84.7483 74.8268 84.9438 74.8285 85.1452C74.8064 86.4176 74.5637 87.0758 73.7006 87.9682C72.9449 88.3657 72.156 88.2695 71.3267 88.2708C71.0361 88.2727 71.0361 88.2727 70.7395 88.2747C70.0968 88.2785 69.454 88.2803 68.8113 88.2817C68.3651 88.2832 67.9189 88.2847 67.4727 88.2862C66.5363 88.289 65.5999 88.2905 64.6634 88.2914C63.4639 88.2928 62.2645 88.2991 61.0651 88.3065C60.143 88.3114 59.221 88.3127 58.2989 88.3131C57.8568 88.3139 57.4146 88.316 56.9725 88.3194C56.3534 88.3239 55.7345 88.3234 55.1154 88.3217C54.933 88.3241 54.7506 88.3265 54.5627 88.329C53.4689 88.3196 52.7586 88.1789 51.9023 87.4471C51.2406 86.5332 51.3336 85.4712 51.3349 84.3696C51.3332 84.1657 51.3316 83.9618 51.3299 83.7517C51.3251 83.0784 51.3242 82.4051 51.3236 81.7318C51.3221 81.2632 51.3204 80.7945 51.3186 80.3259C51.3157 79.344 51.3148 78.362 51.3151 77.38C51.3151 76.1223 51.3083 74.8648 51.2998 73.6071C51.2943 72.6394 51.2933 71.6717 51.2936 70.704C51.293 70.2403 51.2908 69.7767 51.287 69.313C51.2821 68.6643 51.2835 68.0159 51.2865 67.3671C51.2837 67.1761 51.2809 66.9851 51.2781 66.7882C51.2928 65.5254 51.5439 64.8813 52.3977 63.9954C53.1643 63.5922 53.9753 63.6895 54.817 63.6846Z" fill="#FBBD7B"/>
<path d="M54.817 63.6846C55.1149 63.6814 55.1149 63.6814 55.4189 63.6781C56.0777 63.6716 56.7365 63.6673 57.3954 63.6636C57.7326 63.6615 57.7326 63.6615 58.0767 63.6594C59.2666 63.6524 60.4566 63.6474 61.6465 63.6436C62.876 63.6393 64.1054 63.6276 65.3348 63.6143C66.2798 63.6055 67.2248 63.6025 68.1699 63.6011C68.6231 63.5993 69.0763 63.5953 69.5295 63.5891C70.1641 63.5809 70.7982 63.5808 71.4328 63.5828C71.6198 63.5785 71.8068 63.5742 71.9995 63.5698C72.9244 63.5813 73.4198 63.711 74.1886 64.2637C74.8211 65.2373 74.8646 66.0103 74.8477 67.1503C74.8495 67.3593 74.8513 67.5684 74.8531 67.7837C74.8573 68.4727 74.8525 69.1612 74.8472 69.8502C74.8474 70.3301 74.848 70.81 74.849 71.2899C74.8497 72.2949 74.8461 73.2998 74.8393 74.3047C74.8308 75.592 74.8323 76.8789 74.837 78.1662C74.8396 79.1569 74.8374 80.1476 74.8337 81.1384C74.8324 81.6129 74.8325 82.0875 74.834 82.5621C74.8354 83.2258 74.8303 83.8891 74.8236 84.5528C74.8252 84.7483 74.8268 84.9438 74.8285 85.1452C74.8064 86.4176 74.5637 87.0758 73.7006 87.9682C72.9449 88.3657 72.156 88.2695 71.3267 88.2708C71.0361 88.2727 71.0361 88.2727 70.7395 88.2747C70.0968 88.2785 69.454 88.2803 68.8113 88.2817C68.3651 88.2832 67.9189 88.2847 67.4727 88.2862C66.5363 88.289 65.5999 88.2905 64.6634 88.2914C63.4639 88.2928 62.2645 88.2991 61.0651 88.3065C60.143 88.3114 59.221 88.3127 58.2989 88.3131C57.8568 88.3139 57.4146 88.316 56.9725 88.3194C56.3534 88.3239 55.7345 88.3234 55.1154 88.3217C54.933 88.3241 54.7506 88.3265 54.5627 88.329C53.4689 88.3196 52.7586 88.1789 51.9023 87.4471C51.2406 86.5332 51.3336 85.4712 51.3349 84.3696C51.3332 84.1657 51.3316 83.9618 51.3299 83.7517C51.3251 83.0784 51.3242 82.4051 51.3236 81.7318C51.3221 81.2632 51.3204 80.7945 51.3186 80.3259C51.3157 79.344 51.3148 78.362 51.3151 77.38C51.3151 76.1223 51.3083 74.8648 51.2998 73.6071C51.2943 72.6394 51.2933 71.6717 51.2936 70.704C51.293 70.2403 51.2908 69.7767 51.287 69.313C51.2821 68.6643 51.2835 68.0159 51.2865 67.3671C51.2837 67.1761 51.2809 66.9851 51.2781 66.7882C51.2928 65.5254 51.5439 64.8813 52.3977 63.9954C53.1643 63.5922 53.9753 63.6895 54.817 63.6846Z" fill="#637DFF"/>
<path d="M57.6017 96.1265C58.0405 96.1274 58.4794 96.1278 58.9182 96.1276C59.8357 96.1288 60.7529 96.1352 61.6703 96.1458C62.8451 96.1591 64.0196 96.162 65.1944 96.1614C66.0997 96.1616 67.005 96.1659 67.9102 96.1716C68.3434 96.1741 68.7765 96.1756 69.2097 96.1762C69.815 96.1779 70.4201 96.1847 71.0254 96.1931C71.2926 96.1926 71.2926 96.1926 71.5652 96.192C72.6473 96.2137 73.3375 96.3868 74.1962 97.0884C74.8058 98.0503 74.7665 98.7862 74.7675 99.8996C74.7695 100.106 74.7716 100.312 74.7737 100.525C74.7797 101.208 74.7819 101.891 74.7835 102.575C74.7857 103.049 74.788 103.524 74.7903 103.999C74.7944 104.995 74.7963 105.991 74.797 106.986C74.7983 108.262 74.8077 109.537 74.819 110.813C74.8263 111.794 74.8281 112.775 74.8284 113.756C74.8294 114.226 74.8325 114.696 74.8377 115.166C74.8443 115.824 74.8431 116.482 74.84 117.14C74.8437 117.334 74.8474 117.528 74.8512 117.728C74.8373 118.762 74.7259 119.193 74.094 120.003C73.078 120.854 72.3582 120.841 71.1019 120.843C70.9106 120.844 70.7192 120.845 70.522 120.847C69.8873 120.85 69.2526 120.852 68.6179 120.854C68.1773 120.855 67.7367 120.857 67.296 120.858C66.3713 120.861 65.4465 120.862 64.5217 120.863C63.3372 120.865 62.1528 120.871 60.9683 120.878C60.0578 120.883 59.1472 120.885 58.2366 120.885C57.8 120.886 57.3634 120.888 56.9267 120.891C56.3154 120.896 55.7042 120.895 55.0928 120.894C54.9128 120.896 54.7327 120.898 54.5472 120.901C53.4563 120.891 52.7667 120.729 51.9024 120.019C51.2942 119.059 51.3286 118.323 51.3233 117.212C51.3204 117.006 51.3175 116.8 51.3146 116.588C51.3061 115.906 51.3015 115.224 51.2977 114.542C51.296 114.309 51.2943 114.076 51.2925 113.835C51.2836 112.602 51.2778 111.369 51.2744 110.135C51.2703 108.862 51.2558 107.589 51.2389 106.316C51.2278 105.336 51.2245 104.356 51.2232 103.376C51.2213 102.907 51.2164 102.438 51.2085 101.969C51.1441 97.8435 51.1441 97.8435 52.0069 96.7997C53.5896 95.8049 55.8197 96.1015 57.6017 96.1265Z" fill="#FBBD7B"/>
<path d="M57.6017 96.1265C58.0405 96.1274 58.4794 96.1278 58.9182 96.1276C59.8357 96.1288 60.7529 96.1352 61.6703 96.1458C62.8451 96.1591 64.0196 96.162 65.1944 96.1614C66.0997 96.1616 67.005 96.1659 67.9102 96.1716C68.3434 96.1741 68.7765 96.1756 69.2097 96.1762C69.815 96.1779 70.4201 96.1847 71.0254 96.1931C71.2926 96.1926 71.2926 96.1926 71.5652 96.192C72.6473 96.2137 73.3375 96.3868 74.1962 97.0884C74.8058 98.0503 74.7665 98.7862 74.7675 99.8996C74.7695 100.106 74.7716 100.312 74.7737 100.525C74.7797 101.208 74.7819 101.891 74.7835 102.575C74.7857 103.049 74.788 103.524 74.7903 103.999C74.7944 104.995 74.7963 105.991 74.797 106.986C74.7983 108.262 74.8077 109.537 74.819 110.813C74.8263 111.794 74.8281 112.775 74.8284 113.756C74.8294 114.226 74.8325 114.696 74.8377 115.166C74.8443 115.824 74.8431 116.482 74.84 117.14C74.8437 117.334 74.8474 117.528 74.8512 117.728C74.8373 118.762 74.7259 119.193 74.094 120.003C73.078 120.854 72.3582 120.841 71.1019 120.843C70.9106 120.844 70.7192 120.845 70.522 120.847C69.8873 120.85 69.2526 120.852 68.6179 120.854C68.1773 120.855 67.7367 120.857 67.296 120.858C66.3713 120.861 65.4465 120.862 64.5217 120.863C63.3372 120.865 62.1528 120.871 60.9683 120.878C60.0578 120.883 59.1472 120.885 58.2366 120.885C57.8 120.886 57.3634 120.888 56.9267 120.891C56.3154 120.896 55.7042 120.895 55.0928 120.894C54.9128 120.896 54.7327 120.898 54.5472 120.901C53.4563 120.891 52.7667 120.729 51.9024 120.019C51.2942 119.059 51.3286 118.323 51.3233 117.212C51.3204 117.006 51.3175 116.8 51.3146 116.588C51.3061 115.906 51.3015 115.224 51.2977 114.542C51.296 114.309 51.2943 114.076 51.2925 113.835C51.2836 112.602 51.2778 111.369 51.2744 110.135C51.2703 108.862 51.2558 107.589 51.2389 106.316C51.2278 105.336 51.2245 104.356 51.2232 103.376C51.2213 102.907 51.2164 102.438 51.2085 101.969C51.1441 97.8435 51.1441 97.8435 52.0069 96.7997C53.5896 95.8049 55.8197 96.1015 57.6017 96.1265Z" fill="#637DFF"/>
<path d="M23.2671 128.572C23.4561 128.57 23.645 128.568 23.8397 128.566C24.4664 128.561 25.093 128.558 25.7197 128.556C25.9336 128.555 26.1475 128.553 26.3679 128.552C27.5 128.547 28.6321 128.543 29.7643 128.541C30.9338 128.538 32.1032 128.529 33.2726 128.519C34.1718 128.512 35.0708 128.51 35.97 128.509C36.4011 128.507 36.8321 128.504 37.2632 128.5C37.8669 128.493 38.4703 128.493 39.074 128.495C39.2518 128.492 39.4295 128.489 39.6126 128.485C40.4772 128.495 40.9719 128.597 41.712 129.081C42.7549 130.221 42.8102 131.142 42.8051 132.685C42.8064 132.884 42.8076 133.082 42.8089 133.287C42.8124 133.942 42.8121 134.597 42.8116 135.252C42.8125 135.708 42.8136 136.165 42.8148 136.621C42.8166 137.577 42.8166 138.534 42.8153 139.49C42.8138 140.714 42.818 141.937 42.8238 143.161C42.8274 144.104 42.8276 145.046 42.8269 145.989C42.827 146.44 42.8283 146.891 42.8308 147.342C42.8338 147.974 42.8322 148.605 42.8293 149.237C42.8312 149.422 42.8331 149.607 42.835 149.798C42.823 151.007 42.647 151.851 41.9939 152.851C40.8836 153.647 39.9589 153.732 38.6344 153.738C38.453 153.74 38.2715 153.742 38.0846 153.744C37.4885 153.748 36.8927 153.747 36.2967 153.746C35.8803 153.747 35.4639 153.748 35.0475 153.75C34.1763 153.752 33.3052 153.752 32.434 153.749C31.3195 153.746 30.2052 153.751 29.0907 153.759C28.2313 153.764 27.372 153.764 26.5126 153.762C26.1017 153.762 25.6909 153.764 25.2801 153.767C24.705 153.771 24.1303 153.768 23.5552 153.764C23.2285 153.764 22.9019 153.763 22.5653 153.763C21.5364 153.611 20.9978 153.273 20.1956 152.591C19.8095 151.778 19.907 150.914 19.9041 150.022C19.9025 149.81 19.9008 149.599 19.8992 149.381C19.8943 148.679 19.8914 147.978 19.8889 147.276C19.8879 147.037 19.8869 146.797 19.8858 146.551C19.8807 145.284 19.8771 144.017 19.8748 142.75C19.8721 141.441 19.8636 140.132 19.8537 138.823C19.8472 137.817 19.8452 136.81 19.8443 135.804C19.8431 135.322 19.8402 134.839 19.8356 134.357C19.8296 133.681 19.8298 133.006 19.8315 132.33C19.8283 132.131 19.8252 131.932 19.8219 131.727C19.8308 130.764 19.9189 130.229 20.4197 129.412C21.315 128.492 22.0759 128.576 23.2671 128.572Z" fill="#FBBC7B"/>
<path d="M23.2671 128.572C23.4561 128.57 23.645 128.568 23.8397 128.566C24.4664 128.561 25.093 128.558 25.7197 128.556C25.9336 128.555 26.1475 128.553 26.3679 128.552C27.5 128.547 28.6321 128.543 29.7643 128.541C30.9338 128.538 32.1032 128.529 33.2726 128.519C34.1718 128.512 35.0708 128.51 35.97 128.509C36.4011 128.507 36.8321 128.504 37.2632 128.5C37.8669 128.493 38.4703 128.493 39.074 128.495C39.2518 128.492 39.4295 128.489 39.6126 128.485C40.4772 128.495 40.9719 128.597 41.712 129.081C42.7549 130.221 42.8102 131.142 42.8051 132.685C42.8064 132.884 42.8076 133.082 42.8089 133.287C42.8124 133.942 42.8121 134.597 42.8116 135.252C42.8125 135.708 42.8136 136.165 42.8148 136.621C42.8166 137.577 42.8166 138.534 42.8153 139.49C42.8138 140.714 42.818 141.937 42.8238 143.161C42.8274 144.104 42.8276 145.046 42.8269 145.989C42.827 146.44 42.8283 146.891 42.8308 147.342C42.8338 147.974 42.8322 148.605 42.8293 149.237C42.8312 149.422 42.8331 149.607 42.835 149.798C42.823 151.007 42.647 151.851 41.9939 152.851C40.8836 153.647 39.9589 153.732 38.6344 153.738C38.453 153.74 38.2715 153.742 38.0846 153.744C37.4885 153.748 36.8927 153.747 36.2967 153.746C35.8803 153.747 35.4639 153.748 35.0475 153.75C34.1763 153.752 33.3052 153.752 32.434 153.749C31.3195 153.746 30.2052 153.751 29.0907 153.759C28.2313 153.764 27.372 153.764 26.5126 153.762C26.1017 153.762 25.6909 153.764 25.2801 153.767C24.705 153.771 24.1303 153.768 23.5552 153.764C23.2285 153.764 22.9019 153.763 22.5653 153.763C21.5364 153.611 20.9978 153.273 20.1956 152.591C19.8095 151.778 19.907 150.914 19.9041 150.022C19.9025 149.81 19.9008 149.599 19.8992 149.381C19.8943 148.679 19.8914 147.978 19.8889 147.276C19.8879 147.037 19.8869 146.797 19.8858 146.551C19.8807 145.284 19.8771 144.017 19.8748 142.75C19.8721 141.441 19.8636 140.132 19.8537 138.823C19.8472 137.817 19.8452 136.81 19.8443 135.804C19.8431 135.322 19.8402 134.839 19.8356 134.357C19.8296 133.681 19.8298 133.006 19.8315 132.33C19.8283 132.131 19.8252 131.932 19.8219 131.727C19.8308 130.764 19.9189 130.229 20.4197 129.412C21.315 128.492 22.0759 128.576 23.2671 128.572Z" fill="#637DFF"/>
<path d="M23.1493 63.5367C23.4402 63.5332 23.4402 63.5332 23.7369 63.5297C24.3758 63.5241 25.0141 63.5299 25.653 63.5364C26.0981 63.536 26.5432 63.5351 26.9883 63.5337C27.9204 63.5326 28.8523 63.537 29.7843 63.5454C30.9781 63.5557 32.1714 63.5533 33.3651 63.5469C34.284 63.5432 35.2028 63.5458 36.1217 63.5504C36.5618 63.5519 37.0019 63.5516 37.4419 63.5493C38.0575 63.5473 38.6726 63.5536 39.2881 63.5622C39.4693 63.5599 39.6505 63.5577 39.8372 63.5554C40.8108 63.5788 41.2156 63.7043 41.9773 64.3645C42.7839 65.4249 42.7751 66.1696 42.777 67.4829C42.7789 67.7805 42.7789 67.7805 42.7808 68.084C42.7844 68.742 42.7861 69.3999 42.7874 70.0579C42.7889 70.5149 42.7903 70.972 42.7917 71.429C42.7943 72.3885 42.7958 73.3479 42.7966 74.3074C42.798 75.5352 42.8039 76.763 42.811 77.9909C42.8156 78.9356 42.8169 79.8803 42.8173 80.825C42.818 81.2775 42.82 81.7301 42.8233 82.1826C42.8275 82.8169 42.827 83.451 42.8254 84.0854C42.8277 84.2714 42.83 84.4575 42.8323 84.6492C42.8228 85.8567 42.6257 86.6958 41.994 87.7077C41.1567 88.4035 40.1637 88.306 39.1406 88.3046C38.8613 88.3072 38.8613 88.3072 38.5764 88.3099C37.9616 88.3148 37.3469 88.3158 36.7321 88.3164C36.3039 88.3181 35.8757 88.3198 35.4475 88.3217C34.5501 88.3248 33.6526 88.3258 32.7551 88.3254C31.6068 88.3254 30.4585 88.3325 29.3102 88.3415C28.4257 88.3473 27.5413 88.3483 26.6568 88.3481C26.2336 88.3487 25.8103 88.351 25.387 88.355C24.7941 88.3601 24.2015 88.3586 23.6086 88.3555C23.4348 88.3584 23.261 88.3613 23.082 88.3643C21.8488 88.3478 21.1458 87.9991 20.1957 87.1866C19.8157 86.3871 19.905 85.5473 19.9002 84.6696C19.8982 84.4637 19.8962 84.2577 19.8941 84.0455C19.8879 83.3621 19.8838 82.6788 19.8803 81.9954C19.8789 81.7621 19.8776 81.5288 19.8763 81.2885C19.8696 80.0533 19.8648 78.8182 19.8613 77.583C19.8571 76.3077 19.8461 75.0327 19.8334 73.7575C19.8251 72.7766 19.8222 71.7957 19.8208 70.8148C19.8192 70.3448 19.8154 69.8748 19.8095 69.4048C19.8016 68.7461 19.8016 68.0878 19.8035 67.429C19.7994 67.2356 19.7953 67.0423 19.7911 66.8431C19.8021 65.8827 19.9306 65.1741 20.4536 64.3958C21.3573 63.5809 22.0092 63.5142 23.1493 63.5367Z" fill="#637DFF"/>
<path d="M23.2124 96.2605C23.3985 96.2588 23.5846 96.2571 23.7763 96.2553C24.3951 96.2502 25.0139 96.2472 25.6327 96.2446C25.8438 96.2435 26.0549 96.2424 26.2723 96.2413C27.3903 96.2359 28.5082 96.2322 29.6262 96.2297C30.7804 96.2269 31.9345 96.2179 33.0887 96.2075C33.9764 96.2007 34.864 96.1985 35.7516 96.1976C36.177 96.1963 36.6023 96.1933 37.0277 96.1885C37.6242 96.1821 38.2205 96.1824 38.817 96.1842C38.992 96.1808 39.1669 96.1775 39.3471 96.1741C40.587 96.1877 41.2981 96.5127 42.2417 97.3489C42.896 98.2496 42.8121 99.2849 42.813 100.374C42.8151 100.573 42.8172 100.771 42.8193 100.976C42.8252 101.631 42.8274 102.286 42.8291 102.941C42.8313 103.397 42.8335 103.854 42.8358 104.31C42.8399 105.266 42.8418 106.223 42.8425 107.179C42.8439 108.403 42.8532 109.626 42.8645 110.85C42.8719 111.793 42.8737 112.735 42.8739 113.678C42.875 114.129 42.878 114.58 42.8832 115.031C42.8899 115.663 42.8887 116.294 42.8856 116.926C42.8893 117.111 42.8929 117.296 42.8967 117.487C42.8764 118.952 42.4483 119.548 41.4986 120.54C40.7543 120.932 39.9868 120.844 39.1702 120.847C38.9813 120.848 38.7923 120.85 38.5976 120.852C37.971 120.857 37.3443 120.86 36.7176 120.863C36.5037 120.864 36.2898 120.865 36.0695 120.866C34.9373 120.871 33.8052 120.875 32.6731 120.878C31.5036 120.88 30.3342 120.889 29.1647 120.9C28.2656 120.907 27.3665 120.909 26.4674 120.91C26.0363 120.911 25.6052 120.914 25.1741 120.919C24.5704 120.925 23.9671 120.925 23.3633 120.923C23.1856 120.926 23.0078 120.93 22.8247 120.933C21.6338 120.92 21.0317 120.646 20.1957 119.758C19.8152 118.958 19.9049 118.116 19.9002 117.237C19.8982 117.031 19.8962 116.824 19.8941 116.612C19.8879 115.927 19.8838 115.243 19.8803 114.558C19.8789 114.324 19.8776 114.091 19.8763 113.85C19.8696 112.614 19.8648 111.377 19.8613 110.14C19.8571 108.863 19.846 107.585 19.8334 106.308C19.8251 105.326 19.8222 104.344 19.8208 103.362C19.8192 102.891 19.8154 102.42 19.8095 101.949C19.8016 101.29 19.8016 100.631 19.8035 99.9712C19.7994 99.7769 19.7953 99.5826 19.7911 99.3824C19.8031 98.3356 19.9106 97.9168 20.5608 97.1036C20.7673 96.9266 20.9738 96.7496 21.1865 96.5672C21.6644 96.0646 22.5608 96.2631 23.2124 96.2605Z" fill="#FBBC7A"/>
<path d="M23.2124 96.2605C23.3985 96.2588 23.5846 96.2571 23.7763 96.2553C24.3951 96.2502 25.0139 96.2472 25.6327 96.2446C25.8438 96.2435 26.0549 96.2424 26.2723 96.2413C27.3903 96.2359 28.5082 96.2322 29.6262 96.2297C30.7804 96.2269 31.9345 96.2179 33.0887 96.2075C33.9764 96.2007 34.864 96.1985 35.7516 96.1976C36.177 96.1963 36.6023 96.1933 37.0277 96.1885C37.6242 96.1821 38.2205 96.1824 38.817 96.1842C38.992 96.1808 39.1669 96.1775 39.3471 96.1741C40.587 96.1877 41.2981 96.5127 42.2417 97.3489C42.896 98.2496 42.8121 99.2849 42.813 100.374C42.8151 100.573 42.8172 100.771 42.8193 100.976C42.8252 101.631 42.8274 102.286 42.8291 102.941C42.8313 103.397 42.8335 103.854 42.8358 104.31C42.8399 105.266 42.8418 106.223 42.8425 107.179C42.8439 108.403 42.8532 109.626 42.8645 110.85C42.8719 111.793 42.8737 112.735 42.8739 113.678C42.875 114.129 42.878 114.58 42.8832 115.031C42.8899 115.663 42.8887 116.294 42.8856 116.926C42.8893 117.111 42.8929 117.296 42.8967 117.487C42.8764 118.952 42.4483 119.548 41.4986 120.54C40.7543 120.932 39.9868 120.844 39.1702 120.847C38.9813 120.848 38.7923 120.85 38.5976 120.852C37.971 120.857 37.3443 120.86 36.7176 120.863C36.5037 120.864 36.2898 120.865 36.0695 120.866C34.9373 120.871 33.8052 120.875 32.6731 120.878C31.5036 120.88 30.3342 120.889 29.1647 120.9C28.2656 120.907 27.3665 120.909 26.4674 120.91C26.0363 120.911 25.6052 120.914 25.1741 120.919C24.5704 120.925 23.9671 120.925 23.3633 120.923C23.1856 120.926 23.0078 120.93 22.8247 120.933C21.6338 120.92 21.0317 120.646 20.1957 119.758C19.8152 118.958 19.9049 118.116 19.9002 117.237C19.8982 117.031 19.8962 116.824 19.8941 116.612C19.8879 115.927 19.8838 115.243 19.8803 114.558C19.8789 114.324 19.8776 114.091 19.8763 113.85C19.8696 112.614 19.8648 111.377 19.8613 110.14C19.8571 108.863 19.846 107.585 19.8334 106.308C19.8251 105.326 19.8222 104.344 19.8208 103.362C19.8192 102.891 19.8154 102.42 19.8095 101.949C19.8016 101.29 19.8016 100.631 19.8035 99.9712C19.7994 99.7769 19.7953 99.5826 19.7911 99.3824C19.8031 98.3356 19.9106 97.9168 20.5608 97.1036C20.7673 96.9266 20.9738 96.7496 21.1865 96.5672C21.6644 96.0646 22.5608 96.2631 23.2124 96.2605Z" fill="#637DFF"/>
<path d="M86.8102 63.5367C87.101 63.5332 87.101 63.5332 87.3978 63.5297C88.0367 63.5241 88.675 63.5299 89.3139 63.5364C89.759 63.536 90.2041 63.5351 90.6492 63.5337C91.5813 63.5326 92.5132 63.537 93.4452 63.5454C94.639 63.5557 95.8323 63.5533 97.026 63.5469C97.9449 63.5432 98.8637 63.5458 99.7826 63.5504C100.223 63.5519 100.663 63.5516 101.103 63.5493C101.718 63.5473 102.333 63.5536 102.949 63.5622C103.13 63.5599 103.311 63.5577 103.498 63.5554C104.408 63.5773 104.89 63.7191 105.644 64.2666C106.278 65.2328 106.322 65.9922 106.303 67.1264C106.304 67.3329 106.305 67.5394 106.307 67.7522C106.31 68.4327 106.304 69.1128 106.297 69.7932C106.297 70.2673 106.297 70.7414 106.297 71.2155C106.297 72.2082 106.292 73.2008 106.285 74.1935C106.275 75.4649 106.274 76.7361 106.276 78.0076C106.276 78.9863 106.273 79.9649 106.269 80.9436C106.267 81.4123 106.267 81.8811 106.267 82.3498C106.266 83.0054 106.261 83.6607 106.254 84.3162C106.255 84.5093 106.256 84.7023 106.257 84.9012C106.238 86.0541 106.086 86.7941 105.407 87.7077C104.507 88.3387 103.843 88.306 102.803 88.3046C102.614 88.3063 102.425 88.3081 102.23 88.3099C101.605 88.3148 100.98 88.3158 100.354 88.3164C99.9196 88.3181 99.4849 88.3198 99.0502 88.3217C98.1386 88.3248 97.2269 88.3258 96.3153 88.3254C95.1477 88.3254 93.9803 88.3325 92.8128 88.3415C91.9147 88.3473 91.0167 88.3483 90.1186 88.3481C89.6882 88.3487 89.2578 88.351 88.8274 88.355C88.225 88.3601 87.6228 88.3586 87.0203 88.3555C86.8429 88.3584 86.6656 88.3613 86.4828 88.3643C85.2938 88.3486 84.6916 88.0725 83.8566 87.1866C83.4766 86.3871 83.5658 85.5473 83.5611 84.6696C83.5591 84.4637 83.5571 84.2577 83.555 84.0455C83.5488 83.3621 83.5447 82.6788 83.5411 81.9954C83.5398 81.7621 83.5385 81.5288 83.5371 81.2885C83.5305 80.0533 83.5257 78.8182 83.5222 77.583C83.518 76.3077 83.5069 75.0327 83.4943 73.7575C83.486 72.7766 83.4831 71.7957 83.4817 70.8148C83.4801 70.3448 83.4763 69.8748 83.4704 69.4048C83.4625 68.7461 83.4625 68.0878 83.4643 67.429C83.4603 67.2356 83.4562 67.0423 83.452 66.8431C83.4629 65.8827 83.5914 65.1741 84.1145 64.3958C85.0182 63.5809 85.6701 63.5142 86.8102 63.5367Z" fill="#FBBC7A"/>
<path d="M86.8102 63.5367C87.101 63.5332 87.101 63.5332 87.3978 63.5297C88.0367 63.5241 88.675 63.5299 89.3139 63.5364C89.759 63.536 90.2041 63.5351 90.6492 63.5337C91.5813 63.5326 92.5132 63.537 93.4452 63.5454C94.639 63.5557 95.8323 63.5533 97.026 63.5469C97.9449 63.5432 98.8637 63.5458 99.7826 63.5504C100.223 63.5519 100.663 63.5516 101.103 63.5493C101.718 63.5473 102.333 63.5536 102.949 63.5622C103.13 63.5599 103.311 63.5577 103.498 63.5554C104.408 63.5773 104.89 63.7191 105.644 64.2666C106.278 65.2328 106.322 65.9922 106.303 67.1264C106.304 67.3329 106.305 67.5394 106.307 67.7522C106.31 68.4327 106.304 69.1128 106.297 69.7932C106.297 70.2673 106.297 70.7414 106.297 71.2155C106.297 72.2082 106.292 73.2008 106.285 74.1935C106.275 75.4649 106.274 76.7361 106.276 78.0076C106.276 78.9863 106.273 79.9649 106.269 80.9436C106.267 81.4123 106.267 81.8811 106.267 82.3498C106.266 83.0054 106.261 83.6607 106.254 84.3162C106.255 84.5093 106.256 84.7023 106.257 84.9012C106.238 86.0541 106.086 86.7941 105.407 87.7077C104.507 88.3387 103.843 88.306 102.803 88.3046C102.614 88.3063 102.425 88.3081 102.23 88.3099C101.605 88.3148 100.98 88.3158 100.354 88.3164C99.9196 88.3181 99.4849 88.3198 99.0502 88.3217C98.1386 88.3248 97.2269 88.3258 96.3153 88.3254C95.1477 88.3254 93.9803 88.3325 92.8128 88.3415C91.9147 88.3473 91.0167 88.3483 90.1186 88.3481C89.6882 88.3487 89.2578 88.351 88.8274 88.355C88.225 88.3601 87.6228 88.3586 87.0203 88.3555C86.8429 88.3584 86.6656 88.3613 86.4828 88.3643C85.2938 88.3486 84.6916 88.0725 83.8566 87.1866C83.4766 86.3871 83.5658 85.5473 83.5611 84.6696C83.5591 84.4637 83.5571 84.2577 83.555 84.0455C83.5488 83.3621 83.5447 82.6788 83.5411 81.9954C83.5398 81.7621 83.5385 81.5288 83.5371 81.2885C83.5305 80.0533 83.5257 78.8182 83.5222 77.583C83.518 76.3077 83.5069 75.0327 83.4943 73.7575C83.486 72.7766 83.4831 71.7957 83.4817 70.8148C83.4801 70.3448 83.4763 69.8748 83.4704 69.4048C83.4625 68.7461 83.4625 68.0878 83.4643 67.429C83.4603 67.2356 83.4562 67.0423 83.452 66.8431C83.4629 65.8827 83.5914 65.1741 84.1145 64.3958C85.0182 63.5809 85.6701 63.5142 86.8102 63.5367Z" fill="#637DFF"/>
<path d="M119.736 1.55935C121.289 2.77864 122.115 4.43532 122.499 6.40847C122.6 7.91315 122.581 9.41218 122.561 10.9197C122.557 11.377 122.554 11.8344 122.55 12.2918C122.541 13.312 122.53 14.3321 122.517 15.3522C122.501 16.7678 122.494 18.1832 122.49 19.5988C122.486 21.0102 122.477 22.4215 122.465 23.8329C122.457 24.7075 122.452 25.5821 122.451 26.4568C122.449 27.4472 122.438 28.4372 122.426 29.4276C122.427 29.7222 122.428 30.0169 122.429 30.3205C122.393 32.3879 121.998 34.1723 120.656 35.7529C118.982 37.3112 117.427 37.5764 115.258 37.5227C113.676 37.3433 112.495 36.8192 111.384 35.6091C110.381 34.2725 109.81 33.037 109.787 31.3129C109.782 31.0341 109.777 30.7553 109.772 30.4681C109.769 30.1667 109.766 29.8653 109.763 29.5548C109.759 29.2382 109.754 28.9217 109.749 28.5955C109.736 27.7393 109.726 26.8831 109.717 26.0268C109.709 25.318 109.7 24.6092 109.691 23.9004C109.666 21.9579 109.647 20.0154 109.628 18.0728C109.619 17.164 109.608 16.2553 109.597 15.3465C109.581 14.0955 109.569 12.8445 109.561 11.5934C109.558 11.1487 109.554 10.704 109.548 10.2593C109.51 7.0713 109.594 4.62839 111.792 2.22707C114.027 0.161584 117.179 0.00482982 119.736 1.55935Z" fill="#D9D9D9"/>
<path d="M46.298 1.08298C47.9266 2.1116 49.1051 3.43628 49.673 5.36617C49.7646 6.10483 49.8226 6.79222 49.8433 7.53219C49.8502 7.7346 49.8571 7.93701 49.8642 8.14555C49.9172 9.88878 49.9316 11.6297 49.9285 13.3737C49.9279 13.8092 49.9279 13.8092 49.9273 14.2535C49.9257 15.1996 49.9232 16.1458 49.9207 17.092C49.9199 17.5769 49.9199 17.577 49.9191 18.0717C49.9152 20.0945 49.9032 22.117 49.8829 24.1397C49.8771 24.834 49.8731 25.528 49.8723 26.2223C49.871 27.245 49.8599 28.2675 49.8482 29.2901C49.8496 29.7511 49.8496 29.7511 49.8511 30.2213C49.8185 32.1742 49.5209 33.7148 48.4345 35.3322C46.6474 37.1136 45.0394 37.5395 42.6017 37.4993C40.8196 37.3275 39.6813 36.4894 38.5262 35.0716C37.544 33.6653 37.2628 32.7437 37.2368 31.0231C37.2293 30.588 37.2293 30.588 37.2218 30.1442C37.2176 29.8304 37.2135 29.5167 37.2092 29.1934C37.2041 28.8667 37.1989 28.5399 37.1936 28.2032C37.1829 27.5086 37.1726 26.814 37.1631 26.1194C37.1488 25.0753 37.1324 24.0311 37.1159 22.987C36.9605 12.8417 36.9605 12.8417 37.1018 8.42791C37.1054 8.1864 37.1089 7.94489 37.1125 7.69607C37.1767 5.77956 37.5738 4.18331 38.7477 2.68103C40.9164 0.813205 43.5591 -0.21999 46.298 1.08298Z" fill="#DDDDDD"/>
<path d="M118.861 63.4281C119.045 63.4264 119.229 63.4247 119.418 63.4229C120.026 63.4178 120.634 63.4148 121.242 63.4122C121.554 63.4106 121.554 63.4106 121.872 63.4089C122.972 63.4035 124.073 63.3998 125.173 63.3973C126.308 63.3945 127.444 63.3855 128.579 63.3751C129.453 63.3683 130.327 63.3662 131.201 63.3652C131.619 63.3639 132.038 63.3609 132.456 63.3561C133.043 63.3497 133.629 63.35 134.215 63.3518C134.387 63.3485 134.559 63.3451 134.736 63.3417C135.967 63.3555 136.663 63.7037 137.609 64.5165C138.148 65.367 138.166 65.6003 138.161 66.583C138.161 66.8438 138.161 67.1046 138.161 67.3733C138.158 67.6542 138.156 67.9352 138.153 68.2246C138.152 68.5127 138.152 68.8008 138.151 69.0976C138.148 70.0189 138.142 70.9402 138.136 71.8615C138.133 72.4856 138.131 73.1097 138.129 73.7339C138.123 75.2649 138.115 76.796 138.105 78.327C138.473 78.456 138.473 78.456 138.848 78.5876C138.67 78.5886 138.492 78.5897 138.309 78.5908C130.822 78.669 123.2 80.0322 116.486 83.7237C115.811 84.0596 115.811 84.0596 114.82 84.0596C114.786 81.679 114.759 79.2984 114.743 76.9175C114.735 75.8119 114.725 74.7064 114.708 73.6008C114.692 72.533 114.683 71.4654 114.679 70.3975C114.676 69.9909 114.671 69.5844 114.663 69.178C114.595 65.5948 114.595 65.5948 115.526 64.399C116.516 63.4076 117.56 63.4334 118.861 63.4281Z" fill="#FBBD7B"/>
<path d="M118.861 63.4281C119.045 63.4264 119.229 63.4247 119.418 63.4229C120.026 63.4178 120.634 63.4148 121.242 63.4122C121.554 63.4106 121.554 63.4106 121.872 63.4089C122.972 63.4035 124.073 63.3998 125.173 63.3973C126.308 63.3945 127.444 63.3855 128.579 63.3751C129.453 63.3683 130.327 63.3662 131.201 63.3652C131.619 63.3639 132.038 63.3609 132.456 63.3561C133.043 63.3497 133.629 63.35 134.215 63.3518C134.387 63.3485 134.559 63.3451 134.736 63.3417C135.967 63.3555 136.663 63.7037 137.609 64.5165C138.148 65.367 138.166 65.6003 138.161 66.583C138.161 66.8438 138.161 67.1046 138.161 67.3733C138.158 67.6542 138.156 67.9352 138.153 68.2246C138.152 68.5127 138.152 68.8008 138.151 69.0976C138.148 70.0189 138.142 70.9402 138.136 71.8615C138.133 72.4856 138.131 73.1097 138.129 73.7339C138.123 75.2649 138.115 76.796 138.105 78.327C138.473 78.456 138.473 78.456 138.848 78.5876C138.67 78.5886 138.492 78.5897 138.309 78.5908C130.822 78.669 123.2 80.0322 116.486 83.7237C115.811 84.0596 115.811 84.0596 114.82 84.0596C114.786 81.679 114.759 79.2984 114.743 76.9175C114.735 75.8119 114.725 74.7064 114.708 73.6008C114.692 72.533 114.683 71.4654 114.679 70.3975C114.676 69.9909 114.671 69.5844 114.663 69.178C114.595 65.5948 114.595 65.5948 115.526 64.399C116.516 63.4076 117.56 63.4334 118.861 63.4281Z" fill="#637DFF"/>
<path d="M86.5158 96.2771C86.9621 96.2771 86.9621 96.2771 87.4173 96.2771C87.9012 96.2791 87.9012 96.2791 88.3947 96.2812C88.7273 96.2817 89.0598 96.2821 89.3923 96.2823C90.2678 96.2833 91.1434 96.2859 92.0189 96.2888C92.9122 96.2914 93.8054 96.2926 94.6987 96.2939C96.4517 96.2967 98.2047 96.3012 99.9577 96.3066C99.9577 97.3265 99.6678 97.5077 99.0288 98.261C94.0196 104.564 90.3112 113.144 89.3062 121.322C89.1836 121.064 89.1836 121.064 89.0585 120.801C88.8226 120.807 88.5866 120.813 88.3435 120.819C88.0328 120.824 87.7221 120.828 87.402 120.833C87.0945 120.839 86.787 120.845 86.4702 120.852C85.416 120.791 84.7168 120.656 83.9522 119.867C83.4724 118.987 83.5032 118.165 83.5089 117.178C83.5072 116.972 83.5055 116.765 83.5037 116.552C83.4992 115.871 83.5001 115.189 83.5015 114.507C83.5004 114.033 83.4991 113.558 83.4976 113.084C83.4954 112.09 83.496 111.095 83.4985 110.101C83.5013 108.828 83.4963 107.554 83.4891 106.281C83.4845 105.301 83.4846 104.321 83.486 103.342C83.486 102.872 83.4845 102.403 83.4815 101.933C83.4778 101.276 83.4804 100.62 83.4847 99.9629C83.4823 99.7694 83.4799 99.5759 83.4774 99.3766C83.4946 98.108 83.7404 97.4569 84.5998 96.5672C85.2639 96.2179 85.7722 96.2754 86.5158 96.2771Z" fill="#FBBE7C"/>
<path d="M86.5158 96.2771C86.9621 96.2771 86.9621 96.2771 87.4173 96.2771C87.9012 96.2791 87.9012 96.2791 88.3947 96.2812C88.7273 96.2817 89.0598 96.2821 89.3923 96.2823C90.2678 96.2833 91.1434 96.2859 92.0189 96.2888C92.9122 96.2914 93.8054 96.2926 94.6987 96.2939C96.4517 96.2967 98.2047 96.3012 99.9577 96.3066C99.9577 97.3265 99.6678 97.5077 99.0288 98.261C94.0196 104.564 90.3112 113.144 89.3062 121.322C89.1836 121.064 89.1836 121.064 89.0585 120.801C88.8226 120.807 88.5866 120.813 88.3435 120.819C88.0328 120.824 87.7221 120.828 87.402 120.833C87.0945 120.839 86.787 120.845 86.4702 120.852C85.416 120.791 84.7168 120.656 83.9522 119.867C83.4724 118.987 83.5032 118.165 83.5089 117.178C83.5072 116.972 83.5055 116.765 83.5037 116.552C83.4992 115.871 83.5001 115.189 83.5015 114.507C83.5004 114.033 83.4991 113.558 83.4976 113.084C83.4954 112.09 83.496 111.095 83.4985 110.101C83.5013 108.828 83.4963 107.554 83.4891 106.281C83.4845 105.301 83.4846 104.321 83.486 103.342C83.486 102.872 83.4845 102.403 83.4815 101.933C83.4778 101.276 83.4804 100.62 83.4847 99.9629C83.4823 99.7694 83.4799 99.5759 83.4774 99.3766C83.4946 98.108 83.7404 97.4569 84.5998 96.5672C85.2639 96.2179 85.7722 96.2754 86.5158 96.2771Z" fill="#637DFF"/>
<path d="M122.251 17.0919C122.333 17.0919 122.415 17.0919 122.499 17.0919C122.499 17.314 122.499 17.5361 122.498 17.7649C122.501 18.5931 122.51 19.4208 122.523 20.2489C122.528 20.6065 122.53 20.9641 122.529 21.3217C122.442 23.3223 122.442 23.3223 123.068 25.1342C123.507 25.5114 123.507 25.5114 124.233 25.9514C124.64 26.612 124.64 26.612 124.93 27.2706C125.028 27.4886 125.127 27.7066 125.229 27.9312C126.167 30.3502 125.899 33.0035 125.04 35.4054C123.911 37.9717 121.799 40.0655 119.279 41.0648C116.616 41.9403 114.226 41.7417 111.705 40.4866C109.15 39.0047 107.409 36.7248 106.495 33.8084C106.038 31.1584 106.246 28.4998 107.704 26.2456C108.206 25.5782 108.696 25.122 109.371 24.6486C109.497 23.9424 109.497 23.9424 109.497 23.1157C109.506 22.8117 109.515 22.5077 109.524 22.1945C109.532 21.7163 109.532 21.7163 109.541 21.2285C109.549 20.9078 109.558 20.587 109.567 20.2565C109.587 19.4622 109.604 18.668 109.618 17.8736C109.7 17.8736 109.782 17.8736 109.866 17.8736C109.866 18.0539 109.867 18.2342 109.867 18.42C109.872 20.1295 109.882 21.8389 109.899 23.5483C109.907 24.4269 109.913 25.3054 109.914 26.184C109.917 27.1971 109.927 28.2099 109.939 29.2229C109.938 29.5343 109.937 29.8457 109.936 30.1666C109.968 32.1601 110.286 33.6609 111.352 35.3321C111.896 35.9277 111.896 35.9277 112.498 36.2604C112.685 36.379 112.872 36.4976 113.065 36.6197C114.612 37.4456 116.354 37.3178 118.04 37.1561C119.775 36.5529 120.768 35.4745 121.649 33.8205C122.241 32.3331 122.123 30.7134 122.13 29.1282C122.135 28.7803 122.139 28.4324 122.144 28.0844C122.156 27.1742 122.163 26.2639 122.17 25.3536C122.177 24.4225 122.188 23.4915 122.2 22.5604C122.221 20.7376 122.238 18.9148 122.251 17.0919Z" fill="#275397"/>
<path d="M49.6729 24.3881C49.9505 24.6338 50.2274 24.8802 50.5041 25.127C50.6584 25.2642 50.8127 25.4014 50.9716 25.5427C52.5549 27.0298 53.0377 28.4749 53.1999 30.653C53.2751 34.0059 52.3264 36.3368 50.1683 38.7532C48.8263 40.1222 47.5007 40.8002 45.7096 41.3254C45.5455 41.3751 45.3813 41.4248 45.2122 41.476C42.6307 42.0511 40.3044 41.2661 38.1081 39.8434C36.0309 38.2848 34.5347 36.2962 33.9231 33.671C33.5035 30.8986 33.7419 28.4173 35.2749 26.0981C35.8601 25.2655 36.3746 25.0089 37.2875 24.6486C37.2911 24.8745 37.2947 25.1004 37.2985 25.3332C37.3137 26.1802 37.3321 27.0271 37.3525 27.874C37.3607 28.2389 37.3677 28.6038 37.3733 28.9687C37.3869 32.3481 37.3869 32.3481 38.8512 35.267C40.6793 36.8771 41.9524 37.2647 44.3075 37.2468C45.9299 37.0847 47.1364 36.422 48.295 35.2345C49.1677 33.6923 49.5176 32.5275 49.552 30.7243C49.5564 30.5418 49.5609 30.3593 49.5654 30.1713C49.5787 29.5953 49.5872 29.0193 49.5955 28.4432C49.6037 28.0498 49.6123 27.6564 49.6212 27.263C49.6421 26.3048 49.6587 25.3465 49.6729 24.3881Z" fill="#225299"/>
<path d="M119.527 36.3746C119.69 36.4606 119.854 36.5466 120.022 36.6352C119.481 37.489 119.425 37.5309 118.536 37.7264C117.316 37.9739 116.058 38.1054 114.82 37.9381C114.657 37.7661 114.493 37.5941 114.325 37.4169C114.576 37.4072 114.827 37.3974 115.085 37.3874C115.42 37.3703 115.755 37.353 116.09 37.3355C116.337 37.3267 116.337 37.3267 116.589 37.3177C117.742 37.2523 118.516 36.9376 119.527 36.3746Z" fill="#1D44AB"/>
<path d="M150.242 18.6554C151.288 18.7998 151.93 19.1668 152.781 19.8117C152.997 19.9726 153.213 20.1335 153.436 20.2993C153.958 20.74 153.958 20.74 154.206 21.2611C153.398 20.8415 152.601 20.4046 151.806 19.9583C151.565 19.8239 151.324 19.6895 151.076 19.5511C150.49 19.1765 150.49 19.1765 150.242 18.6554Z" fill="#24548F"/>
<path d="M158.664 82.4962C158.91 82.4962 159.155 82.4962 159.408 82.4962C159.571 83.1841 159.735 83.872 159.903 84.5808C159.29 84.3228 159.29 84.3228 158.664 84.0597C158.664 83.5437 158.664 83.0278 158.664 82.4962Z" fill="#305C97"/>
<path d="M109.123 13.444C109.205 13.444 109.286 13.444 109.371 13.444C109.371 14.0459 109.371 14.6478 109.371 15.268C109.289 15.268 109.207 15.268 109.123 15.268C109.123 14.6661 109.123 14.0641 109.123 13.444Z" fill="#BF7E5D"/>
<path d="M100.948 169.267C101.939 169.528 101.939 169.528 101.939 169.528L100.948 169.267Z" fill="#F8D19F"/>
<path d="M87.0769 169.267C88.0677 169.528 88.0677 169.528 88.0677 169.528L87.0769 169.267Z" fill="#F9E1B6"/>
<path d="M85.0952 169.267C86.086 169.528 86.086 169.528 86.086 169.528L85.0952 169.267Z" fill="#FAE2B6"/>
<path d="M81.1318 169.267C82.1227 169.528 82.1227 169.528 82.1227 169.528L81.1318 169.267Z" fill="#F9E3B7"/>
<path d="M67.2601 169.267C68.251 169.528 68.251 169.528 68.251 169.528L67.2601 169.267Z" fill="#F9E2B7"/>
<path d="M61.3152 169.267C62.306 169.528 62.306 169.528 62.306 169.528L61.3152 169.267Z" fill="#FAE3B7"/>
<path d="M59.3335 169.267C60.3243 169.528 60.3243 169.528 60.3243 169.528L59.3335 169.267Z" fill="#FAE3B7"/>
<path d="M57.3518 169.267C58.3426 169.528 58.3426 169.528 58.3426 169.528L57.3518 169.267Z" fill="#F9E2B8"/>
<path d="M41.4985 169.267C42.4894 169.528 42.4894 169.528 42.4894 169.528L41.4985 169.267Z" fill="#F9E3B8"/>
<path d="M35.5536 169.267C36.5444 169.528 36.5444 169.528 36.5444 169.528L35.5536 169.267Z" fill="#F9E3B8"/>
<path d="M33.572 169.267C34.5629 169.528 34.5629 169.528 34.5629 169.528L33.572 169.267Z" fill="#F9E3B7"/>
<path d="M25.6453 169.267C26.6361 169.528 26.6361 169.528 26.6361 169.528L25.6453 169.267Z" fill="#F8E2B9"/>
<path d="M21.6819 169.267C22.6727 169.528 22.6727 169.528 22.6727 169.528L21.6819 169.267Z" fill="#F7E2B8"/>
<path d="M115.811 176.042C116.554 176.303 116.554 176.303 116.554 176.303L115.811 176.042Z" fill="#EA8442"/>
<path d="M95.0035 169.267C95.7467 169.528 95.7467 169.528 95.7467 169.528L95.0035 169.267Z" fill="#F8DEB1"/>
<path d="M93.0219 169.267C93.765 169.528 93.765 169.528 93.765 169.528L93.0219 169.267Z" fill="#F9DFB2"/>
<path d="M91.7833 169.267C92.5264 169.528 92.5264 169.528 92.5264 169.528L91.7833 169.267Z" fill="#FAE0B4"/>
<path d="M89.3063 169.267C90.0494 169.528 90.0494 169.528 90.0494 169.528L89.3063 169.267Z" fill="#F9E2B5"/>
<path d="M75.1869 169.267C75.93 169.528 75.93 169.528 75.93 169.528L75.1869 169.267Z" fill="#F9E3B7"/>
<path d="M63.5447 169.267C64.2878 169.528 64.2878 169.528 64.2878 169.528L63.5447 169.267Z" fill="#F9E2B9"/>
<path d="M43.4802 169.267C44.2233 169.528 44.2233 169.528 44.2233 169.528L43.4802 169.267Z" fill="#F9E3B8"/>
<path d="M37.5353 169.267C38.2784 169.528 38.2784 169.528 38.2784 169.528L37.5353 169.267Z" fill="#F8E3B9"/>
<path d="M27.6271 169.267C28.3702 169.528 28.3702 169.528 28.3702 169.528L27.6271 169.267Z" fill="#F8E3B9"/>
<path d="M106.398 16.3103C107.141 16.5709 107.141 16.5709 107.141 16.5709L106.398 16.3103Z" fill="#82829A"/>
<path d="M142.068 180.211C142.563 180.472 142.563 180.472 142.563 180.472L142.068 180.211Z" fill="#E67935"/>
<path d="M103.426 169.267C103.921 169.528 103.921 169.528 103.921 169.528L103.426 169.267Z" fill="#F6C591"/>
<path d="M102.187 169.267C102.682 169.528 102.682 169.528 102.682 169.528L102.187 169.267Z" fill="#F7CD9B"/>
<path d="M96.2421 169.267C96.7375 169.528 96.7375 169.528 96.7375 169.528L96.2421 169.267Z" fill="#F9DEB0"/>
<path d="M94.0127 169.267C94.5081 169.528 94.5081 169.528 94.5081 169.528L94.0127 169.267Z" fill="#F9DFB3"/>
<path d="M91.0402 169.267C91.5356 169.528 91.5356 169.528 91.5356 169.528L91.0402 169.267Z" fill="#F9E1B3"/>
<path d="M77.1685 169.267C77.6639 169.528 77.6639 169.528 77.6639 169.528L77.1685 169.267Z" fill="#FAE3B8"/>
<path d="M64.5354 169.267C65.0308 169.528 65.0308 169.528 65.0308 169.528L64.5354 169.267Z" fill="#F9E2B7"/>
<path d="M36.7921 169.267C37.2875 169.528 37.2875 169.528 37.2875 169.528L36.7921 169.267Z" fill="#F9E3B8"/>
<path d="M23.6636 169.267C24.159 169.528 24.159 169.528 24.159 169.528L23.6636 169.267Z" fill="#F8E2B9"/>
<path d="M12.7644 167.704C13.2598 167.965 13.2598 167.965 13.2598 167.965L12.7644 167.704Z" fill="#F4E0BA"/>
<path d="M149.747 17.8738C150.242 18.1344 150.242 18.1344 150.242 18.1344L149.747 17.8738Z" fill="#35649C"/>
<path d="M124.233 16.5709C124.728 16.8315 124.728 16.8315 124.728 16.8315L124.233 16.5709Z" fill="#827F91"/>
<path d="M39.7646 1.19702C40.2601 1.4576 40.2601 1.4576 40.2601 1.4576L39.7646 1.19702Z" fill="#CF7135"/>
</g>
<defs>
<filter id="filter0_d_2120_1112" x="0" y="0.5" width="189" height="188" filterUnits="userSpaceOnUse" color-interpolation-filters="sRGB">
<feFlood flood-opacity="0" result="BackgroundImageFix"/>
<feColorMatrix in="SourceAlpha" type="matrix" values="0 0 0 0 0 0 0 0 0 0 0 0 0 0 0 0 0 0 127 0" result="hardAlpha"/>
<feOffset dy="4"/>
<feGaussianBlur stdDeviation="2"/>
<feComposite in2="hardAlpha" operator="out"/>
<feColorMatrix type="matrix" values="0 0 0 0 0 0 0 0 0 0 0 0 0 0 0 0 0 0 0.25 0"/>
<feBlend mode="normal" in2="BackgroundImageFix" result="effect1_dropShadow_2120_1112"/>
<feBlend mode="normal" in="SourceGraphic" in2="effect1_dropShadow_2120_1112" result="shape"/>
</filter>
</defs>
</svg>
